# ProBuilder 4.2.3
# https://unity3d.com/unity/features/worldbuilding/probuilder
# 12/17/2020 7:27:00 AM

mtllib ./Wall_Shape0.mtl
o Wall_Shape0

g Cube
v 1.322206 0 0
v -1 0 0
v 1.322206 1.078381 0
v -1 1.078381 0
v -1 0 -1
v -1 1.078381 -1
v 1.322206 0 -1
v 1.322206 1.078381 -1
v 1.54826 0.0765686 -0.9234314
v 1.54826 0.0765686 -0.0765686
v 1.54826 0.9234314 -0.9234314
v 1.54826 0.9234314 -0.0765686
v 1.018669 1.206163 -0.1307106
v -0.6964626 1.206163 -0.1307106
v 1.018669 1.206163 -0.8692894
v -0.6964626 1.206163 -0.8692894

vt 0.9657502 0.3785617
vt 0.4948128 0.3785617
vt 0.9657502 0.5972545
vt 0.4948128 0.5972545
vt 0.6976102 0.6103123
vt 0.4948128 0.6103123
vt 0.6976102 0.829005
vt 0.4948128 0.829005
vt 0.4709373 0.3796427
vt 0 0.3796427
vt 0.4709373 0.5983355
vt 0 0.5983355
vt 0.8788093 0.622805
vt 0.7070678 0.622805
vt 0.8788093 0.7945465
vt 0.7070678 0.7945465
vt 0.1104808 0.7926417
vt 0.458305 0.7926417
vt 0.1104808 0.6428599
vt 0.458305 0.6428599
vt 1 0.07389347
vt 0.5290627 0.07389347
vt 1 0.2766908
vt 0.5290627 0.2766908
vt 0.1442334 0.07668632
vt 0.1442334 0.2794836
vt 0.1926349 0.09221423
vt 0.1926349 0.2639557
vt 0.04888265 0.3555255
vt 0.04888265 0.1368327
vt 0.000481234 0.3241022
vt 0.000481234 0.1523606
vt 0.06683777 0.1383503
vt 0.06683777 0.3570431
vt 0.1152392 0.1538782
vt 0.1152392 0.3256198
vt 0.4847512 0.274931
vt 0.4847512 0.07213364
vt 0.4291723 0.259403
vt 0.4291723 0.08766154
vt 0.1350631 0.03707007
vt 0.6060004 0.03707007
vt 0.1966196 0
vt 0.5444438 0
vt 0.3274223 0.07820389
vt 0.3274223 0.2810012
vt 0.3942111 0.1047117
vt 0.3942111 0.2544935
vt 0.2958375 0.2779661
vt 0.2958375 0.07516877
vt 0.2290487 0.2514583
vt 0.2290487 0.1016765
vt 0.6120706 0.3070747
vt 0.1411333 0.3070747
vt 0.550514 0.3441448
vt 0.2026899 0.3441448

vn 0 0 1
vn -1 0 0
vn 0 0 -1
vn 1 0 0
vn 0 1 0
vn 0 -1 0
vn 0.3208152 -0.9471418 0
vn 0.3208153 0 -0.9471418
vn 0.3208153 0 0.9471418
vn 0.5653831 0.8248284 0
vn 0 0.7150718 0.699051
vn 0.3879974 0.9216605 0
vn -0.3879974 0.9216605 0
vn 0 0.7150718 -0.699051

usemtl ProBuilderDefault
f 3/3/1 4/4/1 2/2/1 1/1/1
f 4/7/2 6/8/2 5/6/2 2/5/2
f 6/11/3 8/12/3 7/10/3 5/9/3
f 11/15/4 12/16/4 10/14/4 9/13/4
f 15/19/5 16/20/5 14/18/5 13/17/5
f 1/23/6 2/24/6 5/22/6 7/21/6
f 9/27/7 10/28/7 1/26/7 7/25/7
f 11/31/8 9/32/8 7/30/8 8/29/8
f 10/35/9 12/36/9 3/34/9 1/33/9
f 12/39/10 11/40/10 8/38/10 3/37/10
f 13/43/11 14/44/11 4/42/11 3/41/11
f 15/47/12 13/48/12 3/46/12 8/45/12
f 14/51/13 16/52/13 6/50/13 4/49/13
f 16/55/14 15/56/14 8/54/14 6/53/14

