# ProBuilder 4.2.3
# https://unity3d.com/unity/features/worldbuilding/probuilder
# 12/22/2020 7:27:10 AM

mtllib ./TrainSmokeTube.mtl
o TrainSmokeTube

g TrainSmokeTube
v -0.4230786 1.667099 0
v -0.4230838 1.752742 0
v -0.4031711 1.667099 0.08394241
v -0.4031762 1.752742 0.08394241
v 0.01990142 0 0.1128666
v 0.01990142 1.84 0.1128666
v 0.07720533 0 0.2121199
v 0.07720533 1.84 0.2121199
v 0.165 0 0.2857884
v 0.165 1.84 0.2857884
v 0.2726961 0 0.3249866
v 0.2726961 1.84 0.3249866
v 0.3873039 0 0.3249866
v 0.3873039 1.84 0.3249866
v 0.495 0 0.2857884
v 0.495 1.84 0.2857884
v 0.5827947 0 0.2121199
v 0.5827947 1.84 0.2121199
v 0.6400986 0 0.1128667
v 0.6400986 1.84 0.1128667
v 0.66 0 -2.884952E-08
v 0.66 1.84 -2.884952E-08
v 0.6400986 0 -0.1128667
v 0.6400986 1.84 -0.1128667
v 0.5827947 0 -0.2121199
v 0.5827947 1.84 -0.2121199
v 0.495 0 -0.2857884
v 0.495 1.84 -0.2857884
v 0.3873039 0 -0.3249866
v 0.3873039 1.84 -0.3249866
v 0.2726961 0 -0.3249866
v 0.2726961 1.84 -0.3249866
v 0.165 0 -0.2857884
v 0.165 1.84 -0.2857884
v 0.07720539 0 -0.21212
v 0.07720539 1.84 -0.21212
v 0.01990145 0 -0.1128667
v 0.01990145 1.84 -0.1128667
v -0.4031711 1.667099 -0.08394241
v -0.4031762 1.752742 -0.08394241
v 0 0 0
v 0.33 0 0
v 0 1.84 0
v 0.3300009 2.134644 0
v 0.01980779 1.65922 0.112884
v -9.669388E-05 1.65922 0
v -0.0001017771 1.760619 0
v 0.0198027 1.760619 0.112884
v 0.01980782 1.65922 -0.112884
v 0.01980273 1.760619 -0.112884

vt 0.1190544 0.06448422
vt 0.1328182 0.06367081
vt 0.1182349 0.05061968
vt 0.1319986 0.04980627
vt 0.5310662 0.09185241
vt 0.5310662 0.3880736
vt 0.5495169 0.09185241
vt 0.5495169 0.3880736
vt 0.5679675 0.09185241
vt 0.5679675 0.3880736
vt 0.5864182 0.09185241
vt 0.5864182 0.3880736
vt 0.6048689 0.09185241
vt 0.6048689 0.3880736
vt 0.6233196 0.09185241
vt 0.6233196 0.3880736
vt 0.6417703 0.09185241
vt 0.6417703 0.3880736
vt 0.660221 0.09185241
vt 0.660221 0.3880736
vt 0.6786717 0.09185241
vt 0.6786717 0.3880736
vt 0.6971223 0.09185241
vt 0.6971223 0.3880736
vt 0.715573 0.09185241
vt 0.715573 0.3880736
vt 0.7340237 0.09185241
vt 0.7340237 0.3880736
vt 0.7524744 0.09185241
vt 0.7524744 0.3880736
vt 0.7709251 0.09185241
vt 0.7709251 0.3880736
vt 0.7893758 0.09185241
vt 0.7893758 0.3880736
vt 0.8078265 0.09185241
vt 0.8078265 0.3880736
vt 0.8262771 0.09185241
vt 0.8262771 0.3880736
vt 0.1198737 0.07834876
vt 0.1336374 0.07753535
vt 0.2248548 0.426388
vt 0.2779814 0.426388
vt 0.2280587 0.4445584
vt 0.07122145 0.3881395
vt 0 0.3881395
vt 0.06883151 0.4064347
vt 0.237284 0.4605371
vt 0.08305667 0.3534455
vt 0.01449753 0.3341547
vt 0.07580069 0.3704095
vt 0.2644683 0.4605949
vt 0.3051657 0.4264458
vt 0.2786023 0.4724548
vt 0.1086207 0.314728
vt 0.04957469 0.2749026
vt 0.09640897 0.3285592
vt 0.2959403 0.4787653
vt 0.1554048 0.2759869
vt 0.1159843 0.2166698
vt 0.1388447 0.2841226
vt 0.314391 0.4787653
vt 0.2246081 0.2537077
vt 0.2153826 0.1830864
vt 0.2061574 0.2537077
vt 0.331729 0.4724548
vt 0.2966881 0.2642599
vt 0.3195483 0.1968071
vt 0.280128 0.2561241
vt 0.345863 0.4605949
vt 0.3488085 0.3010317
vt 0.3956425 0.247375
vt 0.3365968 0.2872005
vt 0.3550884 0.4446162
vt 0.3776475 0.3483726
vt 0.4389506 0.3121178
vt 0.3703916 0.3314086
vt 0.3582923 0.4264458
vt 0.3900011 0.4048679
vt 0.4588323 0.3865726
vt 0.3876111 0.3865726
vt 0.3550884 0.4082754
vt 0.3876111 0.4546244
vt 0.4588323 0.4546244
vt 0.3900011 0.4363292
vt 0.345863 0.3922966
vt 0.3539213 0.5089486
vt 0.4224802 0.5282394
vt 0.3611772 0.4919846
vt 0.331729 0.3804367
vt 0.3201265 0.5531567
vt 0.3791723 0.5929821
vt 0.3323382 0.5393254
vt 0.314391 0.3741263
vt 0.2636576 0.584233
vt 0.3030779 0.6435501
vt 0.2802177 0.5760972
vt 0.2959403 0.3741263
vt 0.2061574 0.5741152
vt 0.2153826 0.6447365
vt 0.2246081 0.5741152
vt 0.2786024 0.3804367
vt 0.1388448 0.5437002
vt 0.1159843 0.611153
vt 0.1554049 0.551836
vt 0.2644683 0.3922966
vt 0.09640897 0.4992637
vt 0.04957469 0.5529203
vt 0.1086207 0.5130949
vt 0.237284 0.3922389
vt 0.2280587 0.4082176
vt 0.0758007 0.4574133
vt 0.01449755 0.4936682
vt 0.0830567 0.4743774
vt 0.06883151 0.4213881
vt 0 0.4396834
vt 0.07122145 0.4396834
vt 0.614405 0.6205135
vt 0.5959542 0.6205135
vt 0.6144051 0.8876311
vt 0.5959516 0.8876311
vt 0.5238384 0.8602112
vt 0.5422891 0.8602112
vt 0.5238355 0.8474317
vt 0.5422891 0.8474317
vt 0.5959561 0.9167347
vt 0.59594 0.9039552
vt 0.5961091 0.6205135
vt 0.5961091 0.9167347
vt 0.5961245 0.8876311
vt 0.5961252 0.9039552
vt 0.5775036 0.6205135
vt 0.5775034 0.8876311
vt 0.5053877 0.8602112
vt 0.5053877 0.8474317
vt 0.05195896 0.03425523
vt 0.05197255 0.05270879
vt 0.04751805 0.1074167
vt 0.04431421 0.12559
vt 0.1156256 0.1074167
vt 0.1124213 0.1209307
vt 0.6003755 0.9039552
vt 0.6003762 0.8876311
vt 0.5321209 0.9026872
vt 0.5321217 0.8888994
vt 0.04567484 0.07234912
vt 0.0442592 0.08861181
vt 0.1135618 0.07953532
vt 0.1123663 0.09327112
vt 0.04567484 0.0700545
vt 0.1135618 0.07724075
vt 0.04431418 0.08924337
vt 0.1124213 0.09390271

vn -0.9730115 -5.857607E-05 0.2307565
vn -0.8660254 0 0.5000001
vn -0.6427877 0 0.7660444
vn -0.3420201 0 0.9396927
vn 0 0 1
vn 0.3420202 0 0.9396926
vn 0.6427877 0 0.7660444
vn 0.8660254 0 0.5000001
vn 0.9848077 0 0.1736483
vn 0.9848077 0 -0.1736484
vn 0.8660254 0 -0.5000001
vn 0.6427879 0 -0.7660443
vn 0.34202 0 -0.9396927
vn 0 0 -1
vn -0.3420201 0 -0.9396927
vn -0.6427876 0 -0.7660444
vn -0.8660252 0 -0.5000003
vn -0.9730114 -5.857607E-05 -0.2307568
vn 0 -1 0
vn -0.66147 0.7408467 0.1166349
vn -0.581687 0.7408466 0.3358372
vn -0.4317441 0.7408464 0.5145324
vn -0.2297263 0.7408461 0.6311679
vn 0 0.7408458 0.6716752
vn 0.2297266 0.7408455 0.6311685
vn 0.431745 0.7408452 0.5145335
vn 0.5816885 0.740845 0.3358381
vn 0.6614718 0.7408449 0.1166354
vn 0.6614718 0.7408449 -0.1166355
vn 0.5816885 0.740845 -0.3358381
vn 0.4317451 0.7408452 -0.5145335
vn 0.2297264 0.7408455 -0.6311685
vn 0 0.7408458 -0.6716751
vn -0.2297262 0.740846 -0.6311679
vn -0.431744 0.7408463 -0.5145326
vn -0.5816869 0.7408466 -0.3358374
vn -0.6614699 0.7408466 -0.116635
vn -0.9848078 -5.739882E-05 0.1736481
vn -0.984807 0.001262651 0.173648
vn 0.1735489 0 0.9848253
vn 0.08677447 0 0.4924126
vn 0 0 0
vn 0.1819071 0 -0.9833157
vn 0.1741137 4.168859E-06 -0.9846938
vn 0.1663202 8.337718E-06 -0.9860718
vn -0.9848077 -5.739134E-05 -0.1736482
vn -0.984807 0.001262644 -0.1736481
vn -0.01885062 -0.9998168 0.00332387
vn -0.01873684 -0.9998168 0.00387023
vn -0.01862306 -0.9998168 0.00441659
vn -0.01861779 0.9998213 0.003282814
vn -0.01877131 0.9998161 0.003885488
vn -0.01892482 0.9998108 0.004488162
vn -0.06826367 -3.422094E-06 0.9976673
vn -0.0682638 -3.4221E-06 -0.9976673
vn -0.01862314 -0.9998212 -0.003283764
vn -0.0187767 -0.9998159 -0.003886608
vn -0.01893026 -0.9998108 -0.004489452
vn -0.0188452 0.9998169 -0.003322919
vn -0.01873146 0.9998169 -0.003869123
vn -0.01861771 0.999817 -0.004415326

usemtl ProBuilderDefault
f 41/41/19 42/42/19 5/43/19
f 5/43/19 42/42/19 7/47/19
f 7/51/19 42/52/19 9/53/19
f 9/53/19 42/52/19 11/57/19
f 11/57/19 42/52/19 13/61/19
f 13/61/19 42/52/19 15/65/19
f 15/65/19 42/52/19 17/69/19
f 17/69/19 42/52/19 19/73/19
f 19/73/19 42/52/19 21/77/19
f 21/77/19 42/52/19 23/81/19
f 23/81/19 42/52/19 25/85/19
f 25/85/19 42/52/19 27/89/19
f 27/89/19 42/52/19 29/93/19
f 29/93/19 42/52/19 31/97/19
f 31/97/19 42/52/19 33/101/19
f 33/101/19 42/52/19 35/105/19
f 35/109/19 42/42/19 37/110/19
f 37/110/19 42/42/19 41/41/19
f 6/46/20 44/45/20 43/44/20
f 8/50/21 44/49/21 6/48/21
f 10/56/22 44/55/22 8/54/22
f 12/60/23 44/59/23 10/58/23
f 14/64/24 44/63/24 12/62/24
f 16/68/25 44/67/25 14/66/25
f 18/72/26 44/71/26 16/70/26
f 20/76/27 44/75/27 18/74/27
f 22/80/28 44/79/28 20/78/28
f 24/84/29 44/83/29 22/82/29
f 26/88/30 44/87/30 24/86/30
f 28/92/31 44/91/31 26/90/31
f 30/96/32 44/95/32 28/94/32
f 32/100/33 44/99/33 30/98/33
f 34/104/34 44/103/34 32/102/34
f 36/108/35 44/107/35 34/106/35
f 38/113/36 44/112/36 36/111/36
f 43/116/37 44/115/37 38/114/37
f 4/4/1 2/2/1 1/1/1
f 1/1/1 3/3/1 4/4/1
f 8/8/2 6/6/2 5/5/2
f 5/5/2 7/7/2 8/8/2
f 10/10/3 8/8/3 7/7/3
f 7/7/3 9/9/3 10/10/3
f 12/12/4 10/10/4 9/9/4
f 9/9/4 11/11/4 12/12/4
f 14/14/5 12/12/5 11/11/5
f 11/11/5 13/13/5 14/14/5
f 16/16/6 14/14/6 13/13/6
f 13/13/6 15/15/6 16/16/6
f 18/18/7 16/16/7 15/15/7
f 15/15/7 17/17/7 18/18/7
f 20/20/8 18/18/8 17/17/8
f 17/17/8 19/19/8 20/20/8
f 22/22/9 20/20/9 19/19/9
f 19/19/9 21/21/9 22/22/9
f 24/24/10 22/22/10 21/21/10
f 21/21/10 23/23/10 24/24/10
f 26/26/11 24/24/11 23/23/11
f 23/23/11 25/25/11 26/26/11
f 28/28/12 26/26/12 25/25/12
f 25/25/12 27/27/12 28/28/12
f 30/30/13 28/28/13 27/27/13
f 27/27/13 29/29/13 30/30/13
f 32/32/14 30/30/14 29/29/14
f 29/29/14 31/31/14 32/32/14
f 34/34/15 32/32/15 31/31/15
f 31/31/15 33/33/15 34/34/15
f 36/36/16 34/34/16 33/33/16
f 33/33/16 35/35/16 36/36/16
f 38/38/17 36/36/17 35/35/17
f 35/35/17 37/37/17 38/38/17
f 2/2/18 40/40/18 39/39/18
f 39/39/18 1/1/18 2/2/18
f 46/120/38 41/118/38 5/117/38
f 5/117/38 45/119/38 46/120/38
f 48/124/39 6/122/39 43/121/39
f 43/121/39 47/123/39 48/124/39
f 45/120/42 5/118/41 6/125/40
f 6/125/40 48/126/41 45/120/42
f 50/130/45 38/128/44 37/127/43
f 37/127/43 49/129/44 50/130/45
f 49/132/46 37/131/46 41/118/46
f 41/118/46 46/120/46 49/132/46
f 47/123/47 43/121/47 38/133/47
f 38/133/47 50/134/47 47/123/47
f 1/1/50 46/136/49 45/135/48
f 45/135/48 3/3/49 1/1/50
f 4/140/53 48/138/52 47/137/51
f 47/137/51 2/139/52 4/140/53
f 3/144/54 45/142/54 48/141/54
f 48/141/54 4/143/54 3/144/54
f 40/148/55 50/146/55 49/145/55
f 49/145/55 39/147/55 40/148/55
f 39/150/58 49/149/57 46/136/56
f 46/136/56 1/1/57 39/150/58
f 2/139/61 47/137/60 50/151/59
f 50/151/59 40/152/60 2/139/61

