# ProBuilder 4.2.3
# https://unity3d.com/unity/features/worldbuilding/probuilder
# 12/22/2020 7:44:59 AM

mtllib ./TrainCarBody.mtl
o TrainCarBody

g TrainCarBody
v 0 0 -1
v -2 0 -1
v 0 0 0
v -2 0 0
v -0.5 1 -0.5
v -0.5 1 -0.25
v -1 1 -0.25
v -1 1 -0.75
v -1 1 -0.5
v -1.5 1 -0.5
v -1.5 1 -0.75
v -0.5 1 -0.75
v 0 1 0
v -2 1 0
v -1.75 1 0
v -1.5 1 0
v -1 1 0
v -0.5 1 0
v -0.25 1 0
v -2 1 -1
v -2 1 -0.875
v -2 1 -0.75
v -2 1 -0.5
v -2 1 -0.25
v -2 1 -0.125
v -1.5 1 -1
v -1.75 1 -1
v 0 1 -1
v -0.25 1 -1
v -0.5 1 -1
v -1 1 -1
v 0 1 -0.75
v 0 1 -0.875
v 0 1 -0.125
v 0 1 -0.25
v 0 1 -0.5
v -0.25 1 -0.25
v -0.5 1 -0.125
v -0.25 1 -0.125
v 0 1.909194 -0.125
v 0 1.909194 0
v -0.25 1.909194 0
v -0.25 1.909194 -0.125
v -1.5 1 -0.25
v -1.75 1 -0.25
v -1.5 1 -0.125
v -1.75 1 -0.125
v -1.75 1.909194 0
v -2 1.909194 0
v -2 1.909194 -0.125
v -1.75 1.909194 -0.125
v -2 1.909194 -1
v -1.75 1.909194 -1
v -1.75 1.909194 -0.875
v -2 1.909194 -0.875
v -1.75 1 -0.75
v -1.75 1 -0.875
v -1.5 1 -0.875
v -0.5 1 -0.875
v -0.25 1 -0.875
v -0.25 1.909194 -1
v 0 1.909194 -1
v 0 1.909194 -0.875
v -0.25 1.909194 -0.875
v -0.25 1 -0.75

vt 0.7965865 0.2101748
vt 0.416969 0.2101748
vt 0.7965865 0.3999835
vt 0.416969 0.3999835
vt 0.4806234 0.5064314
vt 0.4806234 0.5538836
vt 0.5755277 0.5538836
vt 0.5755277 0.4589792
vt 0.5755277 0.5064314
vt 0.6704321 0.5064314
vt 0.6704321 0.4589792
vt 0.4806234 0.4589792
vt 0.3829981 0.385719
vt 0.3829981 0.1959103
vt 0.003380649 0.1959103
vt 0.003380649 0.385719
vt 0.05083283 0.385719
vt 0.098285 0.385719
vt 0.1931894 0.385719
vt 0.2880937 0.385719
vt 0.3355459 0.385719
vt 0.1898087 0.6033971
vt 0.1898087 0.4135883
vt 0 0.4135883
vt 0 0.6033971
vt 0.02372609 0.6033971
vt 0.04745218 0.6033971
vt 0.09490436 0.6033971
vt 0.1423565 0.6033971
vt 0.1660826 0.6033971
vt 0.7085257 0.1898087
vt 0.7559779 0.1898087
vt 0.8034301 0.1898087
vt 0.8034301 0
vt 0.4238127 0
vt 0.4238127 0.1898087
vt 0.4712648 0.1898087
vt 0.5187171 0.1898087
vt 0.6136214 0.1898087
vt 0.9525478 0.7857025
vt 0.9762739 0.7857025
vt 1 0.7857025
vt 1 0.5958938
vt 0.8101913 0.5958938
vt 0.8101913 0.7857025
vt 0.8339174 0.7857025
vt 0.8576435 0.7857025
vt 0.9050956 0.7857025
vt 0.385719 0.5538836
vt 0.4331712 0.5538836
vt 0.4806234 0.5776097
vt 0.385719 0.5776097
vt 0.4331712 0.5776097
vt 0.385719 0.6013358
vt 0.4331712 0.6013358
vt 0.4806234 0.6013358
vt 0.5755277 0.6013358
vt 0.6704321 0.5538836
vt 0.7178842 0.5538836
vt 0.7653364 0.5538836
vt 0.6704321 0.6013358
vt 0.6704321 0.5776097
vt 0.7653364 0.5776097
vt 0.7178842 0.6013358
vt 0.7178842 0.5776097
vt 0.7653364 0.6013358
vt 0.7653364 0.411527
vt 0.7178842 0.411527
vt 0.7178842 0.4352531
vt 0.7653364 0.4352531
vt 0.7178842 0.4589792
vt 0.6704321 0.411527
vt 0.5755277 0.411527
vt 0.6704321 0.4352531
vt 0.7653364 0.4589792
vt 0.7653364 0.5064314
vt 0.4806234 0.411527
vt 0.4806234 0.4352531
vt 0.4331712 0.411527
vt 0.4331712 0.4352531
vt 0.385719 0.411527
vt 0.385719 0.4352531
vt 0.385719 0.4589792
vt 0.4331712 0.4589792
vt 0.385719 0.5064314
vt 0.7653364 0.7911444
vt 0.7178842 0.7911444
vt 0.7653364 0.9637175
vt 0.7178842 0.9637175
vt 0.4094451 0.7911444
vt 0.385719 0.7911444
vt 0.4094451 0.9637175
vt 0.385719 0.9637175
vt 0.3619929 0.7911444
vt 0.3619929 0.9637175
vt 0.05355376 0.7911444
vt 0.006101586 0.7911444
vt 0.05355376 0.9637175
vt 0.006101586 0.9637175
vt 0.5755277 0.7911444
vt 0.5518016 0.7911444
vt 0.5755277 0.9637175
vt 0.5518016 0.9637175
vt 0.2196364 0.7911444
vt 0.1959103 0.7911444
vt 0.2196364 0.9637175
vt 0.1959103 0.9637175
vt 0.4331712 0.7911444
vt 0.4331712 0.9637175
vt 0.3382668 0.7911444
vt 0.3382668 0.9637175

vn 0 -1 0
vn 0 1 0
vn 0 0 1
vn -1 0 0
vn 0 0 -1
vn 1 0 0

usemtl ProBuilderDefault
f 19/21/3 3/14/3 13/13/3
f 19/21/3 18/20/3 3/14/3
f 18/20/3 17/19/3 3/14/3
f 3/14/3 17/19/3 4/15/3
f 4/15/3 17/19/3 16/18/3
f 4/15/3 16/18/3 15/17/3
f 15/17/3 14/16/3 4/15/3
f 25/30/4 4/23/4 14/22/4
f 25/30/4 24/29/4 4/23/4
f 24/29/4 23/28/4 4/23/4
f 4/23/4 23/28/4 2/24/4
f 2/24/4 23/28/4 22/27/4
f 2/24/4 22/27/4 21/26/4
f 21/26/4 20/25/4 2/24/4
f 2/34/5 20/33/5 27/32/5
f 27/32/5 26/31/5 2/34/5
f 26/31/5 31/39/5 2/34/5
f 2/34/5 31/39/5 1/35/5
f 1/35/5 31/39/5 30/38/5
f 1/35/5 30/38/5 29/37/5
f 28/36/5 1/35/5 29/37/5
f 1/43/6 28/42/6 33/41/6
f 33/41/6 32/40/6 1/43/6
f 32/40/6 36/48/6 1/43/6
f 1/43/6 36/48/6 3/44/6
f 3/44/6 36/48/6 35/47/6
f 3/44/6 35/47/6 34/46/6
f 13/45/6 3/44/6 34/46/6
f 9/9/2 8/8/2 11/11/2
f 9/9/2 11/11/2 10/10/2
f 31/73/2 26/72/2 58/74/2
f 8/8/2 31/73/2 58/74/2
f 8/8/2 58/74/2 11/11/2
f 11/11/2 58/74/2 57/69/2
f 11/11/2 57/69/2 56/71/2
f 10/10/2 11/11/2 56/71/2
f 56/71/2 22/75/2 23/76/2
f 10/10/2 56/71/2 23/76/2
f 45/59/2 23/76/2 24/60/2
f 23/76/2 45/59/2 10/10/2
f 45/59/2 44/58/2 10/10/2
f 7/7/2 9/9/2 10/10/2
f 7/7/2 10/10/2 44/58/2
f 6/6/2 5/5/2 9/9/2
f 6/6/2 9/9/2 7/7/2
f 5/5/2 12/12/2 8/8/2
f 5/5/2 8/8/2 9/9/2
f 59/78/2 30/77/2 31/73/2
f 8/8/2 59/78/2 31/73/2
f 8/8/2 12/12/2 59/78/2
f 60/80/2 29/79/2 30/77/2
f 60/80/2 30/77/2 59/78/2
f 65/84/2 60/80/2 59/78/2
f 65/84/2 59/78/2 12/12/2
f 32/83/2 33/82/2 60/80/2
f 32/83/2 60/80/2 65/84/2
f 36/85/2 32/83/2 65/84/2
f 65/84/2 12/12/2 5/5/2
f 36/85/2 65/84/2 5/5/2
f 37/50/2 5/5/2 6/6/2
f 5/5/2 37/50/2 36/85/2
f 37/50/2 35/49/2 36/85/2
f 34/52/2 35/49/2 37/50/2
f 34/52/2 37/50/2 39/53/2
f 39/53/2 37/50/2 6/6/2
f 39/53/2 6/6/2 38/51/2
f 19/55/2 39/53/2 38/51/2
f 19/55/2 38/51/2 18/56/2
f 38/51/2 6/6/2 7/7/2
f 17/57/2 38/51/2 7/7/2
f 17/57/2 18/56/2 38/51/2
f 7/7/2 44/58/2 46/62/2
f 17/57/2 7/7/2 46/62/2
f 17/57/2 46/62/2 16/61/2
f 16/61/2 46/62/2 47/65/2
f 16/61/2 47/65/2 15/64/2
f 46/62/2 44/58/2 45/59/2
f 46/62/2 45/59/2 47/65/2
f 47/65/2 45/59/2 24/60/2
f 47/65/2 24/60/2 25/63/2
f 56/71/2 57/69/2 21/70/2
f 56/71/2 21/70/2 22/75/2
f 58/74/2 26/72/2 27/68/2
f 58/74/2 27/68/2 57/69/2
f 4/4/1 2/2/1 1/1/1
f 1/1/1 3/3/1 4/4/1
f 41/54/2 40/52/2 43/53/2
f 43/53/2 42/55/2 41/54/2
f 48/64/2 51/65/2 50/63/2
f 50/63/2 49/66/2 48/64/2
f 54/69/2 53/68/2 52/67/2
f 52/67/2 55/70/2 54/69/2
f 63/82/2 62/81/2 61/79/2
f 61/79/2 64/80/2 63/82/2
f 51/89/5 47/87/5 25/86/5
f 25/86/5 50/88/5 51/89/5
f 48/93/6 15/91/6 47/90/6
f 47/90/6 51/92/6 48/93/6
f 50/95/4 25/94/4 14/91/4
f 14/91/4 49/93/4 50/95/4
f 49/99/3 14/97/3 15/96/3
f 15/96/3 48/98/3 49/99/3
f 53/89/5 27/87/5 20/86/5
f 20/86/5 52/88/5 53/89/5
f 54/103/6 57/101/6 27/100/6
f 27/100/6 53/102/6 54/103/6
f 52/107/4 20/105/4 21/104/4
f 21/104/4 55/106/4 52/107/4
f 55/99/3 21/97/3 57/96/3
f 57/96/3 54/98/3 55/99/3
f 62/93/5 28/91/5 29/108/5
f 29/108/5 61/109/5 62/93/5
f 63/103/6 33/101/6 28/100/6
f 28/100/6 62/102/6 63/103/6
f 61/107/4 29/105/4 60/104/4
f 60/104/4 64/106/4 61/107/4
f 64/111/3 60/110/3 33/91/3
f 33/91/3 63/93/3 64/111/3
f 40/93/5 34/91/5 39/108/5
f 39/108/5 43/109/5 40/93/5
f 41/93/6 13/91/6 34/90/6
f 34/90/6 40/92/6 41/93/6
f 43/95/4 39/94/4 19/91/4
f 19/91/4 42/93/4 43/95/4
f 42/111/3 19/110/3 13/91/3
f 13/91/3 41/93/3 42/111/3

