# ProBuilder 4.2.3
# https://unity3d.com/unity/features/worldbuilding/probuilder
# 12/22/2020 6:55:27 AM

mtllib ./TrainBody.mtl
o TrainBody

g TrainBody
v 0.6472765 0 0.1284928
v -2 0 0
v 0 1 0
v -2 1 0
v -3.0001 0 0
v -3.0001 0 -1
v -3.0001 1 0
v -3.0001 1 -1
v -2 0 -1
v 0.6472765 0 -1.128493
v -2 1 -1
v 0 1 -1
v 0.9535158 -0.06336236 -0.6570418
v 0.9535158 -0.06336236 -0.3429585
v 0.3062394 0.9366376 -0.6249352
v 0.3062394 0.9366376 -0.3750648
v -0.1349522 1.065406 -0.09739494
v -1.865048 1.065406 -0.09739494
v -0.1349522 1.065406 -0.9026051
v -1.865048 1.065406 -0.9026051
v -2 2.0001 -1
v -2 2.0001 0
v -3.0001 2.0001 -1
v -3.0001 2.0001 0
v -2.499816 1.080008 -0.9200001
v -2.499816 1.080008 -0.07999992
v -2.499816 1.920092 -0.9200001
v -2.499816 1.920092 -0.07999992
v -2.904173 1.082104 -0.9562151
v -2.095927 1.082104 -0.9562151
v -2.904173 1.917996 -0.9562151
v -2.095927 1.917996 -0.9562151
v -2.079453 1.066031 -0.0369401
v -2.920647 1.066031 -0.0369401
v -2.079453 1.934069 -0.0369401
v -2.920647 1.934069 -0.0369401
v -1.999916 1.080008 -0.9200001
v -1.999916 1.080008 -0.07999992
v -1.999916 1.920092 -0.9200001
v -1.999916 1.920092 -0.07999992
v -2.904173 1 -1.0001
v -2.095927 1 -1.0001
v -2.904173 2.0001 -1.0001
v -2.095927 2.0001 -1.0001
v -2.904173 1.082104 -1.0002
v -2.095927 1.082104 -1.0002
v -2.904173 1.917996 -1.0002
v -2.095927 1.917996 -1.0002
v -2.079453 1 0.0001001358
v -2.920647 1 0.0001001358
v -2.079453 2.0001 0.0001001358
v -2.920647 2.0001 0.0001001358
v -2.079453 1.066031 0.0002002716
v -2.920647 1.066031 0.0002002716
v -2.079453 1.934069 0.0002002716
v -2.920647 1.934069 0.0002002716
v -0.03787482 1.0001 0
v -1.962125 1.0001 0
v -0.03787482 1.0001 -1
v -1.962125 1.0001 -1
v -0.03787482 1.0002 -0.04189968
v -1.962125 1.0002 -0.04189968
v -0.03787482 1.0002 -0.9581006
v -1.962125 1.0002 -0.9581006
v -0.03787482 1.065206 -0.04189968
v -1.962125 1.065206 -0.04189968
v -0.03787482 1.065206 -0.9581006
v -1.962125 1.065206 -0.9581006
v -0.1349522 1.065306 -0.04189968
v -1.865048 1.065306 -0.04189968
v -0.0378747 1.1829 -0.8236091
v -0.0378747 1.1829 -0.1763911
v -0.1349521 1.183 -0.8236091
v -0.1349521 1.183 -0.1763911
v -1.962125 1.190331 -0.2213323
v -1.962125 1.190331 -0.7786677
v -1.865048 1.190431 -0.2213323
v -1.865048 1.190431 -0.7786677
v -1.865048 1.065306 -0.9581006
v -0.1349522 1.065306 -0.9581006

vt 0.2904736 0.3567681
vt 0.1357937 0.4809562
vt 0.2994549 0.4459883
vt 0.1824314 0.5390449
vt 0.3379818 0.2262762
vt 0.3379818 0.1514737
vt 0.2631794 0.2262762
vt 0.2631794 0.1514737
vt 0.5917971 0.4813753
vt 0.4364471 0.3569072
vt 0.544835 0.5399893
vt 0.427745 0.4461755
vt 0.3752817 0.3404979
vt 0.3517875 0.3404979
vt 0.37288 0.4296028
vt 0.3541892 0.4296028
vt 0.4434049 0.7937384
vt 0.5728202 0.7937384
vt 0.4434049 0.7335068
vt 0.5728202 0.7335068
vt 0.6108146 0.1418621
vt 0.4127918 0.1514737
vt 0.6108146 0.2358877
vt 0.4127919 0.2262762
vt 0.1243368 0.5856872
vt 0.07769907 0.5275985
vt 0.650417 0.5283421
vt 0.6034549 0.5869561
vt 0.8112844 0.7152222
vt 0.8112844 0.8036709
vt 0.8997422 0.7152222
vt 0.8997422 0.8036709
vt 0.07307309 0.2005918
vt 0.07307309 0.2634258
vt 0.1359134 0.2005918
vt 0.1359134 0.2634258
vt 0.9782544 0.9155352
vt 0.9782544 0.8440464
vt 0.9043203 0.9155352
vt 0.9043203 0.8440464
vt 0.7650742 0.9717003
vt 0.8394769 0.9717003
vt 0.7650742 0.8949234
vt 0.8394769 0.8949234
vt 0.9881998 0.8036709
vt 0.9881998 0.7152222
vt 0.6916209 0.5965548
vt 0.6916211 0.6850037
vt 0.6986976 0.6036307
vt 0.6986976 0.6779279
vt 0.7800794 0.5965539
vt 0.7730026 0.60363
vt 0.7800786 0.6850038
vt 0.7730023 0.6779279
vt 0.03567934 0.2005918
vt 0.03567934 0.2634258
vt 0.1359134 0.163198
vt 0.07307309 0.163198
vt 0.07307309 0.3008196
vt 0.1359134 0.3008196
vt 0.1733072 0.2634258
vt 0.1733072 0.2005918
vt 0.9277774 0.126708
vt 0.9924778 0.126708
vt 0.9339833 0.1267015
vt 0.9862719 0.1267015
vt 0.7923926 0.8139868
vt 0.7923926 0.7255292
vt 0.7839078 0.8139868
vt 0.7839078 0.7255292
vt 0.6916208 0.5880701
vt 0.7800792 0.5880691
vt 0.8859828 0.03491212
vt 0.9506832 0.03491212
vt 0.8921887 0.03490564
vt 0.9444773 0.03490564
vt 0.7588978 0.832894
vt 0.6874096 0.832894
vt 0.7588978 0.840156
vt 0.6874096 0.840156
vt 0.7397046 0.1582413
vt 0.7397046 0.09354083
vt 0.7396981 0.1529297
vt 0.7396981 0.09885245
vt 0.848069 0.0208691
vt 0.848069 0.08556957
vt 0.8480755 0.02618071
vt 0.8480755 0.08025795
vt 0.6919737 0.8115968
vt 0.7634619 0.8115968
vt 0.6919737 0.8043348
vt 0.7634619 0.8043348
vt 0.9924778 0.191402
vt 0.9277774 0.191402
vt 0.9873378 0.1914084
vt 0.9329175 0.1914084
vt 0.7070633 0.9819357
vt 0.7070633 0.893478
vt 0.7000358 0.9819357
vt 0.7000358 0.893478
vt 0.9881998 0.8106986
vt 0.8997422 0.8106986
vt 0.9506832 0.09960611
vt 0.8859828 0.09960611
vt 0.9455431 0.09961259
vt 0.8911229 0.09961259
vt 0.7650742 0.9808256
vt 0.8394769 0.9808256
vt 0.7650742 0.9749852
vt 0.8394769 0.9749852
vt 0.9114938 0.1850151
vt 0.9114938 0.1203146
vt 0.9114873 0.1807432
vt 0.9114873 0.1245864
vt 0.9115068 0.1203146
vt 0.9115068 0.1850151
vt 0.9115133 0.1245864
vt 0.9115133 0.1807432
vt 0.5775868 0.8619099
vt 0.6519895 0.8619099
vt 0.5775868 0.8560695
vt 0.6519895 0.8560695
vt 0.7169812 0.8949232
vt 0.7169812 0.9716999
vt 0.7202661 0.8949232
vt 0.7202661 0.9716999
vt 0.6643566 0.8830643
vt 0.6643566 0.9598411
vt 0.6676417 0.8830643
vt 0.6676417 0.9598411
vt 0.5775868 0.8527845
vt 0.6519895 0.8527845
vt 0.7588978 0.8440464
vt 0.6874096 0.8440464
vt 0.8328316 0.840156
vt 0.8328316 0.8440464
vt 0.9782544 0.840156
vt 0.9043201 0.840156
vt 0.7821123 0.1203146
vt 0.90905 0.1203211
vt 0.7845626 0.1203211
vt 0.4883438 0.6385413
vt 0.4883438 0.7133437
vt 0.4911769 0.6385413
vt 0.4911769 0.7133437
vt 0.6882712 0.6850037
vt 0.6882712 0.5965548
vt 0.9127565 0.0208691
vt 0.7833685 0.0208691
vt 0.9103062 0.02087557
vt 0.7858188 0.02087557
vt 0.4361432 0.7419809
vt 0.5800818 0.7419809
vt 0.4361432 0.7388467
vt 0.5800818 0.7388467
vt 0.8308508 0.1968176
vt 0.7661569 0.1968176
vt 0.8281402 0.1968241
vt 0.7688675 0.1968241
vt 0.8468063 0.1203211
vt 0.9087896 0.1203276
vt 0.849517 0.1203276
vt 0.3798724 0.7729727
vt 0.2359338 0.7729727
vt 0.3798724 0.7761069
vt 0.2359338 0.7761069
vt 0.4361432 0.7339841
vt 0.5800818 0.7339841
vt 0.367609 0.7388467
vt 0.367609 0.7339841
vt 0.1551356 0.7388467
vt 0.2236699 0.7388467
vt 0.1551356 0.7339841
vt 0.2236699 0.7339841
vt 0.90905 0.124533
vt 0.7845626 0.124533
vt 0.9027697 0.1245395
vt 0.7908429 0.1245395
vt 0.3776693 0.7251803
vt 0.426083 0.7251803
vt 0.3776693 0.7179187
vt 0.426083 0.7179187
vt 0.176037 0.700798
vt 0.2102478 0.7246245
vt 0.1801871 0.6948391
vt 0.2143979 0.7186656
vt 0.8930945 0.2010296
vt 0.7686071 0.2010296
vt 0.8868142 0.2010361
vt 0.7748874 0.2010361
vt 0.4434049 0.7978896
vt 0.5728202 0.7978896
vt 0.8281402 0.2010361
vt 0.82455 0.2010425
vt 0.7724577 0.2010425
vt 0.9087896 0.1245395
vt 0.849517 0.1245395
vt 0.9051994 0.124546
vt 0.8531072 0.124546
vt 0.5728202 0.8116403
vt 0.4434049 0.8116403
vt 0.5728202 0.8157915
vt 0.4434049 0.8157915
vt 0.1685576 0.7246245
vt 0.1521946 0.7173725
vt 0.1521946 0.7246341
vt 0.1685577 0.7173629
vt 0.22782 0.7280252
vt 0.2334358 0.7148206
vt 0.1771968 0.6756521
vt 0.2170725 0.7148302
vt 0.1828617 0.6910036
vt 0.3643008 0.7179279
vt 0.3643009 0.7251896
vt 0.4394515 0.7251894
vt 0.4394515 0.7179278
vt 0.4361433 0.7091149
vt 0.367609 0.7091149
vt 0.6342071 0.1771278
vt 0.6342071 0.200622
vt 0.408615 0.4461755
vt 0.4173171 0.3569072
vt 0.3760304 0.4296028
vt 0.378432 0.3404979
vt 0.3095212 0.3570412
vt 0.3185024 0.4462613
vt 0.3484977 0.3404979
vt 0.3508993 0.4296027
vt 0.4649511 0.685288
vt 0.4649511 0.666597

vn -0.04825437 0.09650874 0.9941617
vn -0.02412719 0.04825437 0.9970809
vn 0 0 1
vn -1 0 0
vn -0.04848076 0 -0.9988241
vn -0.02424038 0.06372264 -0.9953349
vn 0 0.1274453 -0.9918455
vn 0.8394868 0.5433801 0
vn 0 1 0
vn 0 -1 0
vn 0 0 -1
vn 1 0 0
vn 0.9999995 -0.001051916 0
vn 0.9999995 0 -0.001052022
vn 0.9999995 0 0.001052022
vn 0.9999995 0.001051916 0
vn -0.001043872 0 -0.9999995
vn 0.001043871 0 -0.9999995
vn 0 -0.001219625 -0.9999993
vn 0 0.001219625 -0.9999993
vn 0.00126032 0 0.9999992
vn -0.001260314 0 0.9999992
vn 0 -0.001516485 0.9999989
vn 0 0.001516485 0.9999989
vn 0.002643853 0.9999965 0
vn -0.002643861 0.9999965 0
vn 0 0.9999971 0.002389887
vn 0 0.9999971 -0.002389901
vn 0.001031505 0.9999995 0
vn -0.001031505 0.9999995 0
vn 0 0.9999984 0.0018044
vn 0 0.9999984 -0.001804392
vn -0.0008440845 0.8202567 0.571995
vn -0.0008440854 0.8202575 -0.5719937
vn 0.0007743986 0.752538 -0.6585485
vn 0.0007743993 0.7525386 0.6585477
vn -0.2026132 -0.9792588 0
vn 0.7034165 0.517862 -0.4868514
vn 0.728989 0.5099212 -0.4547622
vn 0.7545615 0.5019805 -0.4226731
vn 0.7408744 0.5321969 0.4097214
vn 0.7291033 0.5063538 0.4571225
vn 0.7173322 0.4805107 0.5045236
vn 0.2026132 0.9792588 0

usemtl ProBuilderDefault
f 3/3/2 4/4/3 2/2/2 1/1/1
f 7/7/4 8/8/4 6/6/4 5/5/4
f 11/11/6 12/12/7 10/10/6 9/9/5
f 15/15/8 16/16/8 14/14/8 13/13/8
f 19/19/9 20/20/9 18/18/9 17/17/9
f 1/23/10 2/24/10 9/22/10 10/21/10
f 5/5/10 6/6/10 9/22/10 2/24/10
f 7/25/3 5/26/3 2/2/3 4/4/3
f 6/27/11 8/28/11 11/11/11 9/9/11
f 23/31/9 24/32/9 22/30/9 21/29/9
f 27/35/12 28/36/12 26/34/12 25/33/12
f 31/39/11 32/40/11 30/38/11 29/37/11
f 35/43/3 36/44/3 34/42/3 33/41/3
f 24/32/4 23/31/4 8/46/4 7/45/4
f 37/49/13 38/50/13 4/48/13 11/47/13
f 39/52/14 37/49/14 11/47/14 21/51/14
f 38/50/15 40/54/15 22/53/15 4/48/15
f 40/54/16 39/52/16 21/51/16 22/53/16
f 25/33/9 26/34/9 38/56/9 37/55/9
f 27/35/3 25/33/3 37/58/3 39/57/3
f 26/34/11 28/36/11 40/60/11 38/59/11
f 28/36/10 27/35/10 39/62/10 40/61/10
f 41/65/10 42/66/10 11/64/10 8/63/10
f 43/69/17 41/70/17 8/68/17 23/67/17
f 42/71/18 44/72/18 21/51/18 11/47/18
f 44/75/9 43/76/9 23/74/9 21/73/9
f 45/79/19 46/80/19 42/78/19 41/77/19
f 47/83/4 45/84/4 41/82/4 43/81/4
f 46/87/12 48/88/12 44/86/12 42/85/12
f 48/91/20 47/92/20 43/90/20 44/89/20
f 49/95/10 50/96/10 7/94/10 4/93/10
f 51/99/21 49/100/21 4/98/21 22/97/21
f 50/101/22 52/102/22 24/32/22 7/45/22
f 52/105/9 51/106/9 22/104/9 24/103/9
f 53/109/23 54/110/23 50/108/23 49/107/23
f 55/113/12 53/114/12 49/112/12 51/111/12
f 54/117/4 56/118/4 52/116/4 50/115/4
f 56/121/24 55/122/24 51/120/24 52/119/24
f 33/41/9 34/42/9 54/110/9 53/109/9
f 35/125/4 33/126/4 53/124/4 55/123/4
f 34/129/12 36/130/12 56/128/12 54/127/12
f 36/131/10 35/132/10 55/122/10 56/121/10
f 29/133/9 30/134/9 46/80/9 45/79/9
f 31/136/12 29/133/12 45/79/12 47/135/12
f 30/38/4 32/40/4 48/138/4 46/137/4
f 32/40/10 31/136/10 47/135/10 48/138/10
f 57/140/3 58/141/3 4/139/3 3/115/3
f 59/144/25 57/145/25 3/143/25 12/142/25
f 58/146/26 60/147/26 11/47/26 4/48/26
f 60/150/11 59/151/11 12/149/11 11/148/11
f 61/154/27 62/155/27 58/153/27 57/152/27
f 63/158/12 61/159/12 57/157/12 59/156/12
f 62/161/4 64/162/4 60/160/4 58/115/4
f 64/165/28 63/166/28 59/164/28 60/163/28
f 65/167/3 66/168/3 62/155/3 61/154/3
f 67/170/12 65/167/12 61/154/12 63/169/12
f 66/173/4 68/174/4 64/172/4 62/171/4
f 68/174/11 67/170/11 63/169/11 64/172/11
f 69/177/3 70/178/3 66/176/3 65/175/3
f 73/181/29 74/182/29 72/180/29 71/179/29
f 77/185/30 78/186/30 76/184/30 75/183/30
f 79/189/11 80/190/11 67/188/11 68/187/11
f 17/17/31 18/18/31 70/192/31 69/191/31
f 19/194/12 17/195/12 69/188/12 80/193/12
f 18/198/4 20/199/4 79/197/4 70/196/4
f 20/202/32 19/203/32 80/201/32 79/200/32
f 75/204/4 76/184/4 68/174/4 66/173/4
f 77/207/33 75/204/33 66/206/33 70/205/33
f 76/184/34 78/186/34 79/208/34 68/174/34
f 78/211/12 77/212/12 70/210/12 79/209/12
f 71/179/12 72/180/12 65/167/12 67/170/12
f 73/181/35 71/179/35 67/214/35 80/213/35
f 72/180/36 74/182/36 69/216/36 65/215/36
f 74/182/4 73/181/4 80/218/4 69/217/4
f 13/219/37 14/220/37 1/23/37 10/21/37
f 15/223/39 13/224/40 10/222/39 12/221/38
f 14/227/42 16/228/43 3/226/42 1/225/41
f 16/229/44 15/230/44 12/142/44 3/143/44

