# ProBuilder 4.2.3
# https://unity3d.com/unity/features/worldbuilding/probuilder
# 12/22/2020 7:45:10 AM

mtllib ./TrainCarRoof.mtl
o TrainCarRoof

g TrainCarRoof
v 0.1201578 0 0.09613943
v -2.120158 0 0.09613943
v 0 0.25 -0.05171251
v -2 0.25 -0.05171251
v -2.120158 0 -1.096139
v -2 0.25 -0.9482875
v 0.1201578 0 -1.096139
v 0 0.25 -0.9482875
v -0.1380868 0.3862366 -0.2479272
v -1.861913 0.3862366 -0.2479272
v -0.1380868 0.3862366 -0.7520728
v -1.861913 0.3862366 -0.7520728
v 0 0.2501 -0.2479272
v -2 0.2501 -0.2479272
v 0 0.2501 -0.7520728
v -2 0.2501 -0.7520728

vt 0.6181551 0
vt 0.2502508 0
vt 0.5984228 0.04769735
vt 0.2699831 0.04769735
vt 0.1957958 0.1174449
vt 0 0.1174449
vt 0.1715156 0.1629956
vt 0.02428022 0.1629956
vt 0.6183261 0.3059045
vt 0.2504219 0.3059045
vt 0.5985938 0.3536018
vt 0.2701542 0.3536018
vt 0.934911 0.3753821
vt 0.7391151 0.3753821
vt 0.9106307 0.4209329
vt 0.7633953 0.4209329
vt 0.6670229 0.3364119
vt 0.9501094 0.3364119
vt 0.6670229 0.2536212
vt 0.9501094 0.2536212
vt 0.6198559 0.07805749
vt 0.2519517 0.07805749
vt 0.6198559 0.2738533
vt 0.2519517 0.2738533
vt 0.6511499 0.1202859
vt 0.9795895 0.1202859
vt 0.6511499 0.08806352
vt 0.9795895 0.08806352
vt 0.5993709 0.4436945
vt 0.4521355 0.4436945
vt 0.5671486 0.443711
vt 0.4843578 0.443711
vt 0.4470571 0.4538998
vt 0.2998218 0.4538998
vt 0.4148348 0.4539162
vt 0.3320441 0.4539162
vt 1 0.1976076
vt 0.6715603 0.1976076
vt 1 0.2298299
vt 0.6715603 0.2298299
vt 0.9828202 0.1426564
vt 0.6543806 0.1426564
vt 0.9601436 0.1650127
vt 0.6770571 0.1650127
vt 0.1374057 0.1991933
vt 0.1374057 0.2819839
vt 0.1692496 0.1991933
vt 0.1692496 0.2819839
vt 0.08400621 0.2870866
vt 0.08400621 0.2042959
vt 0.05216233 0.2870866
vt 0.05216233 0.2042959
vt 0.9761878 0.03550125
vt 0.6477481 0.03550125
vt 0.9535111 0.05785761
vt 0.6704247 0.05785761

vn 0 0.5090474 0.8607385
vn -0.9013011 0.4331932 0
vn 0 0.5090474 -0.8607385
vn 0.901301 0.4331936 0
vn 0 1 0
vn 0 -1 0
vn 0 0.9999999 0.0005095786
vn 1 0 0
vn -1 0 0
vn 0 0.9999999 -0.0005095786
vn 0 0 1
vn 0.7020603 0.7121174 0
vn -0.7020603 0.7121174 0
vn 0 0 -1

usemtl ProBuilderDefault
f 3/3/1 4/4/1 2/2/1 1/1/1
f 4/7/2 6/8/2 5/6/2 2/5/2
f 6/11/3 8/12/3 7/10/3 5/9/3
f 8/15/4 3/16/4 1/14/4 7/13/4
f 11/19/5 12/20/5 10/18/5 9/17/5
f 1/23/6 2/24/6 5/22/6 7/21/6
f 13/27/7 14/28/7 4/26/7 3/25/7
f 15/31/8 13/32/8 3/30/8 8/29/8
f 14/35/9 16/36/9 6/34/9 4/33/9
f 16/39/10 15/40/10 8/38/10 6/37/10
f 9/43/11 10/44/11 14/42/11 13/41/11
f 11/47/12 9/48/12 13/46/12 15/45/12
f 10/51/13 12/52/13 16/50/13 14/49/13
f 12/55/14 11/56/14 15/54/14 16/53/14

