# Exported from ProBuilder
# http://www.procore3d.com/probuilder
# 6/4/2018 5:52:06 AM

mtllib ./Tree.mtl
o Tree

g Tree (1)
v -0.4597845 -4.176382 -0.6895474
v -0.4597845 -1.946619 -0.4215439
v -0.3133379 -4.176382 -0.335994
v -0.3133383 -1.99475 -0.07128221
v -0.3133379 -4.176382 -0.335994
v -0.3133383 -1.99475 -0.07128221
v 0.0402155 -4.176382 -0.1895474
v 0.04021548 -2.014688 0.07380122
v 0.0402155 -4.176382 -0.1895474
v 0.04021548 -2.014688 0.07380122
v 0.3937689 -4.176382 -0.335994
v 0.3937693 -1.99475 -0.07128221
v 0.3937689 -4.176382 -0.335994
v 0.3937693 -1.99475 -0.07128221
v 0.5402155 -4.176382 -0.6895474
v 0.5402155 -1.946619 -0.4215439
v 0.5402155 -4.176382 -0.6895474
v 0.5402155 -1.946619 -0.4215439
v 0.3937689 -4.176382 -1.043101
v 0.3937693 -1.898487 -0.7718056
v 0.3937689 -4.176382 -1.043101
v 0.3937693 -1.898487 -0.7718056
v 0.04021547 -4.176382 -1.189547
v 0.04021548 -1.878549 -0.916889
v 0.04021547 -4.176382 -1.189547
v 0.04021548 -1.878549 -0.916889
v -0.3133378 -4.176382 -1.043101
v -0.3133383 -1.898487 -0.7718056
v -0.3133378 -4.176382 -1.043101
v -0.3133383 -1.898487 -0.7718056
v -0.4597845 -4.176382 -0.6895474
v -0.4597845 -1.946619 -0.4215439
v -0.3133379 -4.176382 -0.335994
v 0.04021548 -4.176382 -0.6895474
v -0.4597845 -4.176382 -0.6895474
v 0.0402155 -4.176382 -0.1895474
v 0.04021548 -4.176382 -0.6895474
v -0.3133379 -4.176382 -0.335994
v 0.3937689 -4.176382 -0.335994
v 0.5402155 -4.176382 -0.6895474
v 0.04021548 -4.176382 -0.6895474
v 0.3937689 -4.176382 -0.335994
v 0.3937689 -4.176382 -1.043101
v 0.04021547 -4.176382 -1.189547
v 0.04021548 -4.176382 -0.6895474
v 0.3937689 -4.176382 -1.043101
v -0.3133378 -4.176382 -1.043101
v -0.3133378 -4.176382 -1.043101
v -0.6484432 4.123074 0.8292845
v -0.6484432 4.149727 0.7499291
v -0.5892499 4.130881 0.8060419
v -0.7076365 4.130881 0.8060419
v -0.6484432 4.149727 0.7499291
v -0.6484432 4.123074 0.8292845
v -0.7321551 4.149727 0.7499291
v -0.7076365 4.168575 0.6938166
v -0.6484432 4.149727 0.7499291
v -0.7321551 4.149727 0.7499291
v -0.6484432 4.176382 0.6705739
v -0.6484432 4.149727 0.7499291
v -0.7076365 4.168575 0.6938166
v -0.5892499 4.168575 0.6938166
v -0.5647314 4.149727 0.7499291
v -0.6484432 4.149727 0.7499291
v -0.5892499 4.168575 0.6938166
v -0.5647314 4.149727 0.7499291
v 0.3937693 -1.99475 -0.07128221
v 0.04021548 -2.014688 0.07380122
v 0.3937693 -0.6142416 0.3986627
v 0.04021548 -0.6608701 0.5374882
v 0.04021548 -2.014688 0.07380122
v -0.3133383 -1.99475 -0.07128221
v 0.04021548 -0.6608701 0.5374882
v -0.3133383 -0.6142416 0.3986627
v -0.3133383 -1.99475 -0.07128221
v -0.4597845 -1.946619 -0.4215439
v -0.3133383 -0.6142416 0.3986627
v -0.4597845 -0.5016718 0.06350917
v -0.4597845 -1.946619 -0.4215439
v -0.3133383 -1.898487 -0.7718056
v -0.4597845 -0.5016718 0.06350917
v -0.3133383 -0.389102 -0.2716439
v -0.3133383 -1.898487 -0.7718056
v 0.04021548 -1.878549 -0.916889
v -0.3133383 -0.389102 -0.2716439
v 0.04021548 -0.3424735 -0.4104694
v 0.04021548 -1.878549 -0.916889
v 0.3937693 -1.898487 -0.7718056
v 0.04021548 -0.3424735 -0.4104694
v 0.3937693 -0.389102 -0.2716439
v 0.3937693 -1.898487 -0.7718056
v 0.5402155 -1.946619 -0.4215439
v 0.3937693 -0.389102 -0.2716439
v 0.5402155 -0.5016718 0.06350917
v 0.5402155 -1.946619 -0.4215439
v 0.3937693 -1.99475 -0.07128221
v 0.5402155 -0.5016718 0.06350917
v 0.3937693 -0.6142416 0.3986627
v 0.3937693 -0.6142416 0.3986627
v 0.04021548 -0.6608701 0.5374882
v 0.5945196 0.8553824 0.7628418
v 0.2409658 0.808754 0.9016672
v 0.04021548 -0.6608701 0.5374882
v -0.3133383 -0.6142416 0.3986627
v 0.2409658 0.808754 0.9016672
v -0.1125879 0.8553824 0.7628418
v -0.3133383 -0.6142416 0.3986627
v -0.4597845 -0.5016718 0.06350917
v -0.1125879 0.8553824 0.7628418
v -0.2590342 0.9679523 0.4276882
v -0.4597845 -0.5016718 0.06350917
v -0.3133383 -0.389102 -0.2716439
v -0.2590342 0.9679523 0.4276882
v -0.1381788 1.080522 0.08379668
v -0.3133383 -0.389102 -0.2716439
v 0.04021548 -0.3424735 -0.4104694
v -0.1381788 1.080522 0.08379668
v 0.1919699 1.127151 -0.1040199
v 0.04021548 -0.3424735 -0.4104694
v 0.3937693 -0.389102 -0.2716439
v 0.1919699 1.127151 -0.1040199
v 0.5945196 1.080522 0.09253508
v 2.67164 1.369352 0.347733
v 2.69867 1.371641 0.3814474
v 2.556678 1.470395 0.4277399
v 2.583707 1.472683 0.4614543
v 0.5402155 -0.5016718 0.06350917
v 0.3937693 -0.6142416 0.3986627
v 0.7409658 0.9679523 0.4276882
v 0.5945196 0.8553824 0.7628418
v 0.5945196 0.8553824 0.7628418
v 0.2409658 0.808754 0.9016672
v -0.08077426 2.111122 1.084923
v -0.3472271 2.075982 1.189548
v 0.2409658 0.808754 0.9016672
v -0.1125879 0.8553824 0.7628418
v -0.3472271 2.075982 1.189548
v -0.6136799 2.111122 1.084923
v -0.1125879 0.8553824 0.7628418
v -0.2590342 0.9679523 0.4276882
v -0.6136799 2.111122 1.084923
v -0.7240479 2.19596 0.8323373
v -0.2590342 0.9679523 0.4276882
v -0.1381788 1.080522 0.08379668
v -0.7240479 2.19596 0.8323373
v -0.5646849 2.280797 0.6374809
v -2.60129 2.560344 -0.05491215
v -2.52591 2.570991 -0.09779465
v -2.69867 2.834393 0.07150561
v -2.641861 2.842416 0.03918761
v 0.1919699 1.127151 -0.1040199
v 0.5945196 1.080522 0.09253508
v -0.3158712 2.315938 0.4959347
v -0.08077426 2.280797 0.5797521
v 0.5945196 1.080522 0.09253508
v 0.7409658 0.9679523 0.4276882
v -0.08077426 2.280797 0.5797521
v 0.02959369 2.19596 0.8323373
v 0.7409658 0.9679523 0.4276882
v 0.5945196 0.8553824 0.7628418
v 0.02959369 2.19596 0.8323373
v -0.08077426 2.111122 1.084923
v -0.08077426 2.111122 1.084923
v -0.3472271 2.075982 1.189548
v -0.4442419 3.384203 0.9435038
v -0.6484432 3.357272 1.023685
v -0.3472271 2.075982 1.189548
v -0.6136799 2.111122 1.084923
v -0.6484432 3.357272 1.023685
v -0.8526445 3.384203 0.9435038
v -0.6136799 2.111122 1.084923
v -0.7240479 2.19596 0.8323373
v -0.8526445 3.384203 0.9435038
v -0.9372272 3.44922 0.7499297
v -0.7240479 2.19596 0.8323373
v -0.5646849 2.280797 0.6374809
v -0.9372272 3.44922 0.7499297
v -0.8526445 3.514236 0.5563563
v -0.5646849 2.280797 0.6374809
v -0.3158712 2.315938 0.4959347
v -0.8526445 3.514236 0.5563563
v -0.6484432 3.541167 0.476175
v -0.3158712 2.315938 0.4959347
v -0.08077426 2.280797 0.5797521
v -0.6484432 3.541167 0.476175
v -0.4442419 3.514236 0.5563563
v 1.484066 3.629435 0.7190782
v 1.498359 3.640546 0.7517444
v 1.436999 3.754566 0.6197636
v 1.447951 3.763081 0.6447985
v 0.02959369 2.19596 0.8323373
v -0.08077426 2.111122 1.084923
v -0.3596593 3.44922 0.7499297
v -0.4442419 3.384203 0.9435038
v -0.4442419 3.384203 0.9435038
v -0.6484432 3.357272 1.023685
v -0.5892499 4.130881 0.8060419
v -0.6484432 4.123074 0.8292845
v -0.6484432 3.357272 1.023685
v -0.8526445 3.384203 0.9435038
v -0.6484432 4.123074 0.8292845
v -0.7076365 4.130881 0.8060419
v -0.8526445 3.384203 0.9435038
v -0.9372272 3.44922 0.7499297
v -0.7076365 4.130881 0.8060419
v -0.7321551 4.149727 0.7499291
v -0.9372272 3.44922 0.7499297
v -0.8526445 3.514236 0.5563563
v -0.7321551 4.149727 0.7499291
v -0.7076365 4.168575 0.6938166
v -0.8526445 3.514236 0.5563563
v -0.6484432 3.541167 0.476175
v -0.7076365 4.168575 0.6938166
v -0.6484432 4.176382 0.6705739
v -0.6484432 3.541167 0.476175
v -0.4442419 3.514236 0.5563563
v -0.6484432 4.176382 0.6705739
v -0.5892499 4.168575 0.6938166
v -0.4442419 3.514236 0.5563563
v -0.3596593 3.44922 0.7499297
v -0.5892499 4.168575 0.6938166
v -0.5647314 4.149727 0.7499291
v -0.3596593 3.44922 0.7499297
v -0.4442419 3.384203 0.9435038
v -0.5647314 4.149727 0.7499291
v -0.5892499 4.130881 0.8060419
v -0.1381788 1.080522 0.08379668
v 0.1919699 1.127151 -0.1040199
v -0.2907277 1.409028 0.1845602
v -0.1350751 1.431011 0.09601188
v -0.5646849 2.280797 0.6374809
v -0.1381788 1.080522 0.08379668
v -0.491809 1.974912 0.4456013
v -0.2907277 1.409028 0.1845602
v 0.1919699 1.127151 -0.1040199
v -0.3158712 2.315938 0.4959347
v -0.1350751 1.431011 0.09601188
v -0.3158712 2.315938 0.4959347
v -0.3745029 1.991479 0.3788676
v -0.1350751 1.431011 0.09601188
v -0.3158712 2.315938 0.4959347
v -0.5646849 2.280797 0.6374809
v -0.3745029 1.991479 0.3788676
v -0.491809 1.974912 0.4456013
v -0.2907277 1.409028 0.1845602
v -0.1350751 1.431011 0.09601188
v -1.158778 1.560169 -0.05491155
v -1.083398 1.570816 -0.09779406
v -0.491809 1.974912 0.4456013
v -0.2907277 1.409028 0.1845602
v -1.256158 1.834218 0.0715062
v -1.158778 1.560169 -0.05491155
v -0.1350751 1.431011 0.09601188
v -0.3745029 1.991479 0.3788676
v -1.083398 1.570816 -0.09779406
v -1.199348 1.842241 0.03918821
v -0.3745029 1.991479 0.3788676
v -0.491809 1.974912 0.4456013
v -1.199348 1.842241 0.03918821
v -1.256158 1.834218 0.0715062
v -1.158778 1.560169 -0.05491155
v -1.083398 1.570816 -0.09779406
v -1.9048 1.90849 -0.05491138
v -1.82942 1.919137 -0.09779388
v -1.256158 1.834218 0.0715062
v -1.158778 1.560169 -0.05491155
v -2.00218 2.182539 0.07150638
v -1.9048 1.90849 -0.05491138
v -2.113788 2.375274 -0.8121487
v -2.123981 2.399135 -0.8001066
v -2.179371 2.405895 -0.8121487
v -2.189564 2.429756 -0.8001066
v -1.199348 1.842241 0.03918821
v -1.256158 1.834218 0.0715062
v -1.945371 2.190562 0.03918839
v -2.00218 2.182539 0.07150638
v -1.9048 1.90849 -0.05491138
v -1.82942 1.919137 -0.09779388
v -2.60129 2.560344 -0.05491215
v -2.52591 2.570991 -0.09779465
v -2.00218 2.182539 0.07150638
v -1.9048 1.90849 -0.05491138
v -2.69867 2.834393 0.07150561
v -2.60129 2.560344 -0.05491215
v -1.995426 2.71908 -0.4794841
v -2.000332 2.730564 -0.4736882
v -2.024896 2.746661 -0.4794842
v -2.029802 2.758145 -0.4736882
v -1.945371 2.190562 0.03918839
v -2.00218 2.182539 0.07150638
v -2.641861 2.842416 0.03918761
v -2.69867 2.834393 0.07150561
v 0.3937693 -0.389102 -0.2716439
v 0.5402155 -0.5016718 0.06350917
v 0.4732573 -0.07877398 -0.1117617
v 0.5527251 -0.1398587 0.07010609
v 0.5945196 1.080522 0.09253508
v 0.3937693 -0.389102 -0.2716439
v 0.5821927 0.7187042 0.08585674
v 0.4732573 -0.07877398 -0.1117617
v 0.5402155 -0.5016718 0.06350917
v 0.7409658 0.9679523 0.4276882
v 0.5527251 -0.1398587 0.07010609
v 0.6616604 0.6576195 0.2677246
v 0.7409658 0.9679523 0.4276882
v 0.5945196 1.080522 0.09253508
v 0.6616604 0.6576195 0.2677246
v 0.5821927 0.7187042 0.08585674
v 0.4732573 -0.07877398 -0.1117617
v 0.5527251 -0.1398587 0.07010609
v 1.173481 0.08522177 -0.02725047
v 1.217553 0.05134439 0.07361311
v 0.5821927 0.7187042 0.08585674
v 0.4732573 -0.07877398 -0.1117617
v 1.233896 0.5275021 0.08234841
v 1.173481 0.08522177 -0.02725047
v 0.5527251 -0.1398587 0.07010609
v 0.6616604 0.6576195 0.2677246
v 1.217553 0.05134439 0.07361311
v 1.277969 0.4936247 0.183212
v 0.6616604 0.6576195 0.2677246
v 0.5821927 0.7187042 0.08585674
v 1.277969 0.4936247 0.183212
v 1.233896 0.5275021 0.08234841
v 1.173481 0.08522177 -0.02725047
v 1.217553 0.05134439 0.07361311
v 2.104568 0.1519179 0.2532617
v 2.176507 0.1580086 0.3429911
v 1.233896 0.5275021 0.08234841
v 1.173481 0.08522177 -0.02725047
v 1.798603 0.4208379 0.4661962
v 1.173481 0.08522177 -0.02725047
v 2.104568 0.1519179 0.2532617
v 1.798603 0.4208379 0.4661962
v 1.217553 0.05134439 0.07361311
v 1.277969 0.4936247 0.183212
v 2.176507 0.1580086 0.3429911
v 1.277969 0.4936247 0.183212
v 1.870541 0.426928 0.5559255
v 2.176507 0.1580086 0.3429911
v 1.277969 0.4936247 0.183212
v 1.233896 0.5275021 0.08234841
v 1.870541 0.426928 0.5559255
v 1.233896 0.5275021 0.08234841
v 1.798603 0.4208379 0.4661962
v 1.870541 0.426928 0.5559255
v 2.104568 0.1519179 0.2532617
v 2.176507 0.1580086 0.3429911
v 2.67164 1.369352 0.347733
v 2.69867 1.371641 0.3814474
v 2.481062 1.363162 0.1087286
v 2.513543 1.334614 0.08612388
v 2.561538 1.474581 0.1046461
v 2.573742 1.463854 0.09615272
v 2.176507 0.1580086 0.3429911
v 1.870541 0.426928 0.5559255
v 2.69867 1.371641 0.3814474
v 2.583707 1.472683 0.4614543
v 2.014501 0.9021578 1.179158
v 2.008234 0.9016271 1.171342
v 2.076627 0.9932566 1.170929
v 2.074272 0.9930568 1.167992
v -0.08077426 2.280797 0.5797521
v 0.02959369 2.19596 0.8323373
v 0.03072204 2.891193 0.6581981
v 0.02959369 2.19596 0.8323373
v 0.0584115 2.692232 0.7215673
v 0.03072204 2.891193 0.6581981
v -0.4442419 3.514236 0.5563563
v -0.08077426 2.280797 0.5797521
v -0.06046588 3.200643 0.6523284
v 0.03072204 2.891193 0.6581981
v 0.02959369 2.19596 0.8323373
v -0.3596593 3.44922 0.7499297
v 0.0584115 2.692232 0.7215673
v -0.03924553 3.184331 0.7008927
v -0.3596593 3.44922 0.7499297
v -0.4442419 3.514236 0.5563563
v -0.03924553 3.184331 0.7008927
v -0.06046588 3.200643 0.6523284
v 0.03072204 2.891193 0.6581981
v 0.0584115 2.692232 0.7215673
v 0.8765692 2.961308 0.6709149
v 0.0584115 2.692232 0.7215673
v 0.8908613 2.950321 0.7036235
v 0.8765692 2.961308 0.6709149
v -0.06046588 3.200643 0.6523284
v 0.03072204 2.891193 0.6581981
v 0.8295018 3.121032 0.6678854
v 0.8295018 3.121032 0.6678854
v 0.0584115 2.692232 0.7215673
v -0.03924553 3.184331 0.7008927
v 0.8908613 2.950321 0.7036235
v 0.8404549 3.112613 0.6929522
v -0.03924553 3.184331 0.7008927
v -0.06046588 3.200643 0.6523284
v 0.8404549 3.112613 0.6929522
v 0.8295018 3.121032 0.6678854
v 0.8765692 2.961308 0.6709149
v 0.8908613 2.950321 0.7036235
v 1.484066 3.629435 0.7190782
v 0.8908613 2.950321 0.7036235
v 1.498359 3.640546 0.7517444
v 1.484066 3.629435 0.7190782
v 0.8295018 3.121032 0.6678854
v 0.8765692 2.961308 0.6709149
v 1.436999 3.754566 0.6197636
v 1.436999 3.754566 0.6197636
v 0.8908613 2.950321 0.7036235
v 0.8404549 3.112613 0.6929522
v 1.498359 3.640546 0.7517444
v 1.128565 3.715767 1.098548
v 1.149833 3.728289 1.0971
v 1.151598 3.72593 1.100315
v 1.128182 3.71593 1.097794
v 0.8295018 3.121032 0.6678854
v 1.436999 3.754566 0.6197636
v 1.447951 3.763081 0.6447985
v 1.870541 0.426928 0.5559255
v 1.798603 0.4208379 0.4661962
v 1.978648 0.5985799 0.5286891
v 1.930429 0.5944977 0.4685441
v 2.583707 1.472683 0.4614543
v 1.870541 0.426928 0.5559255
v 2.45668 1.299544 0.4653656
v 1.978648 0.5985799 0.5286891
v 1.798603 0.4208379 0.4661962
v 2.556678 1.470395 0.4277399
v 1.930429 0.5944977 0.4685441
v 2.438562 1.29801 0.442767
v 2.556678 1.470395 0.4277399
v 2.583707 1.472683 0.4614543
v 2.438562 1.29801 0.442767
v 2.45668 1.299544 0.4653656
v 1.978648 0.5985799 0.5286891
v 1.930429 0.5944977 0.4685441
v 2.154227 0.8771024 0.5684219
v 2.144505 0.8762794 0.5562947
v 2.45668 1.299544 0.4653656
v 1.978648 0.5985799 0.5286891
v 2.250614 1.01844 0.5556539
v 2.154227 0.8771024 0.5684219
v 1.930429 0.5944977 0.4685441
v 2.438562 1.29801 0.442767
v 2.144505 0.8762794 0.5562947
v 2.438562 1.29801 0.442767
v 2.246961 1.018131 0.5510972
v 2.144505 0.8762794 0.5562947
v 2.438562 1.29801 0.442767
v 2.45668 1.299544 0.4653656
v 2.246961 1.018131 0.5510972
v 2.250614 1.01844 0.5556539
v 2.154227 0.8771024 0.5684219
v 2.144505 0.8762794 0.5562947
v 1.803242 0.8771024 0.8780962
v 1.793519 0.8762794 0.865969
v 2.250614 1.01844 0.5556539
v 2.154227 0.8771024 0.5684219
v 1.899629 1.01844 0.8653281
v 1.803242 0.8771024 0.8780962
v 2.144505 0.8762794 0.5562947
v 2.246961 1.018131 0.5510972
v 1.793519 0.8762794 0.865969
v 1.895976 1.018131 0.8607715
v 2.246961 1.018131 0.5510972
v 2.250614 1.01844 0.5556539
v 1.895976 1.018131 0.8607715
v 1.899629 1.01844 0.8653281
v 1.803242 0.8771024 0.8780962
v 1.793519 0.8762794 0.865969
v 1.818936 0.9021578 0.8741716
v 1.812669 0.9016271 0.8663551
v 1.899629 1.01844 0.8653281
v 1.803242 0.8771024 0.8780962
v 1.881061 0.9932566 0.8659421
v 1.818936 0.9021578 0.8741716
v 1.793519 0.8762794 0.865969
v 1.895976 1.018131 0.8607715
v 1.812669 0.9016271 0.8663551
v 1.878707 0.9930568 0.863005
v 1.895976 1.018131 0.8607715
v 1.899629 1.01844 0.8653281
v 1.878707 0.9930568 0.863005
v 1.881061 0.9932566 0.8659421
v 1.818936 0.9021578 0.8741716
v 1.812669 0.9016271 0.8663551
v 2.014501 0.9021578 1.179158
v 2.008234 0.9016271 1.171342
v 1.881061 0.9932566 0.8659421
v 1.818936 0.9021578 0.8741716
v 2.076627 0.9932566 1.170929
v 2.014501 0.9021578 1.179158
v 1.812669 0.9016271 0.8663551
v 1.878707 0.9930568 0.863005
v 2.008234 0.9016271 1.171342
v 2.074272 0.9930568 1.167992
v 1.878707 0.9930568 0.863005
v 1.881061 0.9932566 0.8659421
v 2.074272 0.9930568 1.167992
v 2.076627 0.9932566 1.170929
v -1.82942 1.919137 -0.09779388
v -1.945371 2.190562 0.03918839
v -2.088307 2.213457 -0.05420113
v -2.130347 2.311867 -0.004536033
v -2.52591 2.570991 -0.09779465
v -1.82942 1.919137 -0.09779388
v -2.340831 2.449797 -0.05420136
v -1.82942 1.919137 -0.09779388
v -2.088307 2.213457 -0.05420113
v -2.340831 2.449797 -0.05420136
v -1.945371 2.190562 0.03918839
v -2.641861 2.842416 0.03918761
v -2.130347 2.311867 -0.004536033
v -2.641861 2.842416 0.03918761
v -2.38287 2.548207 -0.004536271
v -2.130347 2.311867 -0.004536033
v -2.641861 2.842416 0.03918761
v -2.52591 2.570991 -0.09779465
v -2.38287 2.548207 -0.004536271
v -2.340831 2.449797 -0.05420136
v -2.088307 2.213457 -0.05420113
v -2.130347 2.311867 -0.004536033
v -1.924119 2.683563 -0.3172294
v -1.937946 2.71593 -0.3008946
v -2.340831 2.449797 -0.05420136
v -2.088307 2.213457 -0.05420113
v -2.007174 2.761295 -0.3172295
v -1.924119 2.683563 -0.3172294
v -2.490897 3.025184 -0.7397369
v -2.535885 3.110181 -0.7153345
v -2.395085 3.135353 -0.7886451
v -2.409882 3.163309 -0.7806189
v -2.38287 2.548207 -0.004536271
v -2.340831 2.449797 -0.05420136
v -2.021 2.793662 -0.3008947
v -2.007174 2.761295 -0.3172295
v -1.924119 2.683563 -0.3172294
v -1.937946 2.71593 -0.3008946
v -1.995426 2.71908 -0.4794841
v -2.000332 2.730564 -0.4736882
v -2.007174 2.761295 -0.3172295
v -1.924119 2.683563 -0.3172294
v -2.024896 2.746661 -0.4794842
v -1.995426 2.71908 -0.4794841
v -1.937946 2.71593 -0.3008946
v -2.021 2.793662 -0.3008947
v -2.000332 2.730564 -0.4736882
v -2.029802 2.758145 -0.4736882
v -2.021 2.793662 -0.3008947
v -2.007174 2.761295 -0.3172295
v -2.029802 2.758145 -0.4736882
v -2.007174 2.761295 -0.3172295
v -2.024896 2.746661 -0.4794842
v -2.029802 2.758145 -0.4736882
v 1.798603 0.4208379 0.4661962
v 2.104568 0.1519179 0.2532617
v 1.986918 0.5783811 0.4271176
v 2.177667 0.410728 0.2943676
v 2.556678 1.470395 0.4277399
v 1.798603 0.4208379 0.4661962
v 2.459526 1.232708 0.4031428
v 1.986918 0.5783811 0.4271176
v 2.104568 0.1519179 0.2532617
v 2.67164 1.369352 0.347733
v 2.177667 0.410728 0.2943676
v 2.531197 1.169715 0.3532638
v 2.67164 1.369352 0.347733
v 2.556678 1.470395 0.4277399
v 2.531197 1.169715 0.3532638
v 2.459526 1.232708 0.4031428
v 2.288992 1.047 0.2953768
v 2.289212 1.010829 0.2452369
v 2.294067 1.216319 0.1686521
v 2.294106 1.210159 0.1601147
v 2.35369 1.817712 0.2792121
v 2.297795 1.740326 0.2820476
v 2.365755 1.846319 0.2439092
v 2.356237 1.833141 0.2443921
v 2.177667 0.410728 0.2943676
v 2.531197 1.169715 0.3532638
v 2.513543 1.334614 0.08612388
v 2.573742 1.463854 0.09615272
v 2.531197 1.169715 0.3532638
v 2.459526 1.232708 0.4031428
v 2.573742 1.463854 0.09615272
v 2.561538 1.474581 0.1046461
v 1.986918 0.5783811 0.4271176
v 2.177667 0.410728 0.2943676
v 2.190777 0.7924132 0.2933501
v 2.258462 0.7329235 0.246245
v 2.481062 1.363162 0.1087286
v 1.986918 0.5783811 0.4271176
v 2.366119 1.070885 0.1803728
v 2.190777 0.7924132 0.2933501
v 2.177667 0.410728 0.2943676
v 2.513543 1.334614 0.08612388
v 2.258462 0.7329235 0.246245
v 2.377645 1.060755 0.1723517
v 2.513543 1.334614 0.08612388
v 2.481062 1.363162 0.1087286
v 2.377645 1.060755 0.1723517
v 2.366119 1.070885 0.1803728
v 2.190777 0.7924132 0.2933501
v 2.258462 0.7329235 0.246245
v 2.288992 1.047 0.2953768
v 2.289212 1.010829 0.2452369
v 2.366119 1.070885 0.1803728
v 2.190777 0.7924132 0.2933501
v 2.294067 1.216319 0.1686521
v 2.288992 1.047 0.2953768
v 2.258462 0.7329235 0.246245
v 2.377645 1.060755 0.1723517
v 2.289212 1.010829 0.2452369
v 2.294106 1.210159 0.1601147
v 2.377645 1.060755 0.1723517
v 2.366119 1.070885 0.1803728
v 2.294106 1.210159 0.1601147
v 2.294067 1.216319 0.1686521
v 1.447951 3.763081 0.6447985
v 1.498359 3.640546 0.7517444
v 1.412157 3.553662 0.7038261
v 1.448049 3.505685 0.7692007
v 1.498359 3.640546 0.7517444
v 0.8404549 3.112613 0.6929522
v 1.448049 3.505685 0.7692007
v 0.9795919 3.298982 0.7332619
v 0.8404549 3.112613 0.6929522
v 0.8295018 3.121032 0.6678854
v 0.9795919 3.298982 0.7332619
v 0.9717928 3.302278 0.717939
v 0.8295018 3.121032 0.6678854
v 1.447951 3.763081 0.6447985
v 0.9717928 3.302278 0.717939
v 1.412157 3.553662 0.7038261
v 1.412157 3.553662 0.7038261
v 1.448049 3.505685 0.7692007
v 1.391732 3.444946 0.8559851
v 1.398674 3.435666 0.8686299
v 1.448049 3.505685 0.7692007
v 0.9795919 3.298982 0.7332619
v 1.398674 3.435666 0.8686299
v 1.308065 3.395686 0.8616785
v 0.9795919 3.298982 0.7332619
v 0.9717928 3.302278 0.717939
v 1.308065 3.395686 0.8616785
v 1.306557 3.396323 0.8587148
v 0.9717928 3.302278 0.717939
v 1.412157 3.553662 0.7038261
v 1.306557 3.396323 0.8587148
v 1.391732 3.444946 0.8559851
v 1.391732 3.444946 0.8559851
v 1.398674 3.435666 0.8686299
v 1.149833 3.728289 1.0971
v 1.151598 3.72593 1.100315
v 1.398674 3.435666 0.8686299
v 1.308065 3.395686 0.8616785
v 1.151598 3.72593 1.100315
v 1.128565 3.715767 1.098548
v 1.308065 3.395686 0.8616785
v 1.306557 3.396323 0.8587148
v 1.128565 3.715767 1.098548
v 1.128182 3.71593 1.097794
v 1.306557 3.396323 0.8587148
v 1.391732 3.444946 0.8559851
v 1.128182 3.71593 1.097794
v 1.149833 3.728289 1.0971
v -2.130347 2.311867 -0.004536033
v -2.38287 2.548207 -0.004536271
v -2.131603 2.521404 -0.1101261
v -2.204043 2.589201 -0.1101262
v -1.937946 2.71593 -0.3008946
v -2.130347 2.311867 -0.004536033
v -2.076411 2.637315 -0.1951404
v -2.131603 2.521404 -0.1101261
v -2.38287 2.548207 -0.004536271
v -2.021 2.793662 -0.3008947
v -2.204043 2.589201 -0.1101262
v -2.100236 2.659614 -0.1951405
v -2.021 2.793662 -0.3008947
v -1.937946 2.71593 -0.3008946
v -2.100236 2.659614 -0.1951405
v -2.076411 2.637315 -0.1951404
v -2.131603 2.521404 -0.1101261
v -2.204043 2.589201 -0.1101262
v -2.490897 3.025184 -0.7397369
v -2.535885 3.110181 -0.7153345
v -2.076411 2.637315 -0.1951404
v -2.131603 2.521404 -0.1101261
v -2.395085 3.135353 -0.7886451
v -2.490897 3.025184 -0.7397369
v -2.204043 2.589201 -0.1101262
v -2.100236 2.659614 -0.1951405
v -2.535885 3.110181 -0.7153345
v -2.409882 3.163309 -0.7806189
v -2.100236 2.659614 -0.1951405
v -2.076411 2.637315 -0.1951404
v -2.409882 3.163309 -0.7806189
v -2.395085 3.135353 -0.7886451
v -1.083398 1.570816 -0.09779406
v -1.199348 1.842241 0.03918821
v -1.360657 1.770231 -0.05381089
v -1.402009 1.867029 -0.004958987
v -1.82942 1.919137 -0.09779388
v -1.083398 1.570816 -0.09779406
v -1.626711 1.894453 -0.05381083
v -1.360657 1.770231 -0.05381089
v -1.199348 1.842241 0.03918821
v -1.945371 2.190562 0.03918839
v -1.402009 1.867029 -0.004958987
v -1.668062 1.991251 -0.004958928
v -1.945371 2.190562 0.03918839
v -1.82942 1.919137 -0.09779388
v -1.668062 1.991251 -0.004958928
v -1.626711 1.894453 -0.05381083
v -1.360657 1.770231 -0.05381089
v -1.402009 1.867029 -0.004958987
v -1.889812 2.265866 -0.6130527
v -1.900005 2.289727 -0.6010106
v -1.626711 1.894453 -0.05381083
v -1.360657 1.770231 -0.05381089
v -1.955394 2.296487 -0.6130527
v -1.889812 2.265866 -0.6130527
v -1.402009 1.867029 -0.004958987
v -1.668062 1.991251 -0.004958928
v -1.900005 2.289727 -0.6010106
v -1.965588 2.320348 -0.6010106
v -1.668062 1.991251 -0.004958928
v -1.626711 1.894453 -0.05381083
v -1.965588 2.320348 -0.6010106
v -1.955394 2.296487 -0.6130527
v -1.889812 2.265866 -0.6130527
v -1.900005 2.289727 -0.6010106
v -2.113788 2.375274 -0.8121487
v -2.123981 2.399135 -0.8001066
v -1.955394 2.296487 -0.6130527
v -1.889812 2.265866 -0.6130527
v -2.179371 2.405895 -0.8121487
v -2.113788 2.375274 -0.8121487
v -1.900005 2.289727 -0.6010106
v -1.965588 2.320348 -0.6010106
v -2.123981 2.399135 -0.8001066
v -2.189564 2.429756 -0.8001066
v -1.965588 2.320348 -0.6010106
v -1.955394 2.296487 -0.6130527
v -2.189564 2.429756 -0.8001066
v -2.179371 2.405895 -0.8121487
v 2.459526 1.232708 0.4031428
v 1.986918 0.5783811 0.4271176
v 2.414002 1.188912 0.3499003
v 2.120459 0.7825003 0.3647915
v 2.561538 1.474581 0.1046461
v 2.459526 1.232708 0.4031428
v 2.477364 1.339143 0.1644997
v 2.414002 1.188912 0.3499003
v 1.986918 0.5783811 0.4271176
v 2.481062 1.363162 0.1087286
v 2.120459 0.7825003 0.3647915
v 2.427379 1.269939 0.1670354
v 2.481062 1.363162 0.1087286
v 2.561538 1.474581 0.1046461
v 2.427379 1.269939 0.1670354
v 2.477364 1.339143 0.1644997
v 2.414002 1.188912 0.3499003
v 2.120459 0.7825003 0.3647915
v 2.35369 1.817712 0.2792121
v 2.297795 1.740326 0.2820476
v 2.477364 1.339143 0.1644997
v 2.414002 1.188912 0.3499003
v 2.365755 1.846319 0.2439092
v 2.35369 1.817712 0.2792121
v 2.120459 0.7825003 0.3647915
v 2.427379 1.269939 0.1670354
v 2.297795 1.740326 0.2820476
v 2.356237 1.833141 0.2443921
v 2.427379 1.269939 0.1670354
v 2.477364 1.339143 0.1644997
v 2.356237 1.833141 0.2443921
v 2.365755 1.846319 0.2439092

vn -0.9231421 -3.792904E-05 -0.000580892
vn -0.9236243 -3.603846E-05 -0.0005775988
vn -0.652177 -0.07897414 0.6499481
vn -0.6530116 -0.07865486 0.6491435
vn -0.652177 -0.07897414 0.6499481
vn -0.6530116 -0.07865486 0.6491435
vn 0.0005933195 -0.1117051 0.9178537
vn 0.0005882233 -0.1116461 0.9173697
vn 0.0005933195 -0.1117051 0.9178537
vn 0.0005882233 -0.1116461 0.9173697
vn 0.6518409 -0.07871305 0.6496232
vn 0.652666 -0.0788325 0.6487807
vn 0.6518409 -0.07871305 0.6496232
vn 0.652666 -0.0788325 0.6487807
vn 0.9231459 -0.0001733359 0.000564754
vn 0.9236203 -0.0001752321 0.0005614758
vn 0.9231459 -0.0001733359 0.000564754
vn 0.9236203 -0.0001752321 0.0005614758
vn 0.6522175 0.07732396 -0.6500934
vn 0.6530094 0.07743219 -0.6492836
vn 0.6522175 0.07732396 -0.6500934
vn 0.6530094 0.07743219 -0.6492836
vn -0.0005545914 0.1090459 -0.9181389
vn -0.0005573034 0.1089918 -0.9176831
vn -0.0005545914 0.1090459 -0.9181389
vn -0.0005573034 0.1089918 -0.9176831
vn -0.6518878 0.07748695 -0.6497434
vn -0.6526856 0.07719076 -0.648975
vn -0.6518878 0.07748695 -0.6497434
vn -0.6526856 0.07719076 -0.648975
vn -0.9231421 -3.792904E-05 -0.000580892
vn -0.9236243 -3.603846E-05 -0.0005775988
vn 0 -0.9999999 0
vn 0 -1 0
vn 0 -1 0
vn 0 -0.9999999 0
vn 0 -1 0
vn 0 -0.9999999 0
vn 0 -0.9999999 0
vn 0 -0.9999999 0
vn 0 -1 0
vn 0 -0.9999999 0
vn 0 -0.9999999 0
vn 0 -0.9999999 0
vn 0 -1 0
vn 0 -0.9999999 0
vn 0 -0.9999999 0
vn 0 -0.9999999 0
vn 9.191884E-07 0.9479589 0.3183925
vn 3.665013E-07 0.9479564 0.3184
vn -6.236507E-06 0.9479606 0.3183874
vn 1.832506E-06 0.9479593 0.3183916
vn 3.665013E-07 0.9479564 0.3184
vn 9.191884E-07 0.9479589 0.3183925
vn 0 0.9479572 0.3183977
vn 8.222761E-07 0.9479548 0.3184048
vn 3.665013E-07 0.9479564 0.3184
vn 0 0.9479572 0.3183977
vn 0 0.9479551 0.318404
vn 3.665013E-07 0.9479564 0.3184
vn 8.222761E-07 0.9479548 0.3184048
vn -8.222761E-07 0.9479548 0.3184048
vn -9.133168E-07 0.9479569 0.3183986
vn 3.665013E-07 0.9479564 0.3184
vn -8.222761E-07 0.9479548 0.3184048
vn -9.133168E-07 0.9479569 0.3183986
vn 0.3796599 -0.2989372 0.8754969
vn 0.3765682 -0.3001729 0.876409
vn 0.3826811 -0.2977244 0.8745943
vn 0.3796599 -0.2989372 0.8754969
vn -0.3796599 -0.2989372 0.8754969
vn -0.3766861 -0.2985173 0.8769236
vn -0.3826781 -0.2993605 0.874037
vn -0.3796599 -0.2989372 0.8754969
vn -0.9226563 -0.1234775 0.3653202
vn -0.9214593 -0.1236271 0.3682784
vn -0.9238787 -0.123322 0.3622704
vn -0.9226563 -0.1234775 0.3653202
vn -0.9227085 0.1219541 -0.3656999
vn -0.9215606 0.1221184 -0.3685282
vn -0.9238797 0.121784 -0.3627879
vn -0.9227085 0.1219541 -0.3656999
vn -0.3799603 0.2902858 -0.8782735
vn -0.3772755 0.2899686 -0.8795348
vn -0.3826812 0.2906049 -0.8769857
vn -0.3799603 0.2902858 -0.8782735
vn 0.3799603 0.2902858 -0.8782735
vn 0.3771848 0.291315 -0.8791286
vn 0.3826787 0.2892736 -0.8774267
vn 0.3799603 0.2902858 -0.8782735
vn 0.9227085 0.1219541 -0.3656999
vn 0.9214594 0.1236271 -0.3682785
vn 0.9238785 0.1203731 -0.3632613
vn 0.9227085 0.1219541 -0.3656999
vn 0.9226563 -0.1234775 0.3653202
vn 0.9213462 -0.1252741 0.3680048
vn 0.9238799 -0.1217839 0.3627875
vn 0.9226563 -0.1234775 0.3653202
vn 0.3825718 -0.2711317 0.8832477
vn 0.3825718 -0.2711317 0.8832477
vn 0.3825718 -0.2711317 0.8832477
vn 0.3825718 -0.2711317 0.8832477
vn -0.3796806 -0.1733243 0.9087361
vn -0.3796807 -0.1733243 0.9087361
vn -0.3796806 -0.1733243 0.9087361
vn -0.3796806 -0.1733243 0.9087361
vn -0.9131136 0.02387338 0.4070058
vn -0.9131136 0.02387338 0.4070058
vn -0.9131136 0.02387338 0.4070058
vn -0.9131136 0.02387338 0.4070058
vn -0.9330861 0.1935512 -0.3031308
vn -0.9213498 0.1916157 -0.3382277
vn -0.9435228 0.1952181 -0.2676835
vn -0.9330861 0.1935512 -0.3031308
vn -0.4449501 0.2435579 -0.8617998
vn -0.3817229 0.2262841 -0.8961491
vn -0.5049673 0.2592996 -0.8232689
vn -0.4449501 0.2435579 -0.8617998
vn 0.4164576 0.1544738 -0.8959358
vn 0.3796806 0.1733243 -0.9087361
vn 0.4474304 0.1380483 -0.8835999
vn 0.4164576 0.1544738 -0.8959358
vn 0.4314533 0.8082268 -0.4007712
vn 0.431448 0.8082273 -0.4007758
vn 0.4314585 0.8082263 -0.4007666
vn 0.4314533 0.8082268 -0.4007712
vn 0.9200125 -0.2079808 0.3321462
vn 0.9200125 -0.2079808 0.3321463
vn 0.9200125 -0.2079808 0.3321462
vn 0.9200125 -0.2079808 0.3321462
vn 0.3696947 -0.0392937 0.928322
vn 0.3696946 -0.03929381 0.9283221
vn 0.3696949 -0.03929355 0.9283219
vn 0.3696947 -0.0392937 0.928322
vn -0.3814411 -0.3695366 0.8473166
vn -0.3814413 -0.3695367 0.8473164
vn -0.3814409 -0.3695365 0.8473167
vn -0.3814411 -0.3695366 0.8473166
vn -0.8773196 -0.4128447 0.2446825
vn -0.8773196 -0.4128447 0.2446827
vn -0.8773196 -0.4128447 0.2446824
vn -0.8773196 -0.4128447 0.2446825
vn -0.8615816 -0.1218435 -0.4927792
vn -0.9154177 -0.1536757 -0.3720137
vn -0.7564223 -0.07222345 -0.650084
vn -0.8615816 -0.1218435 -0.4927792
vn -0.5056854 0.2066892 -0.8375929
vn -0.5056859 0.2066891 -0.8375927
vn -0.5056847 0.2066894 -0.8375932
vn -0.5056854 0.2066892 -0.8375929
vn 0.3965122 0.5356425 -0.7455637
vn 0.4200862 0.5341444 -0.733633
vn 0.3533319 0.5373946 -0.7657439
vn 0.3965122 0.5356425 -0.7455637
vn 0.8243133 0.5367932 -0.1798904
vn 0.8243132 0.5367932 -0.1798905
vn 0.8243134 0.5367931 -0.1798902
vn 0.8243133 0.5367932 -0.1798904
vn 0.8228557 0.3225011 0.4678691
vn 0.8228557 0.3225012 0.4678691
vn 0.8228557 0.3225011 0.4678691
vn 0.8228557 0.3225011 0.4678691
vn 0.3355031 0.1980929 0.920976
vn 0.3355032 0.198093 0.9209759
vn 0.335503 0.1980929 0.9209762
vn 0.3355031 0.1980929 0.920976
vn -0.3611737 0.03571553 0.9318143
vn -0.3611737 0.03571551 0.9318143
vn -0.3611737 0.03571556 0.9318143
vn -0.3611737 0.03571553 0.9318143
vn -0.9238094 -0.1335467 0.3588058
vn -0.9238093 -0.1335467 0.3588057
vn -0.9238093 -0.1335466 0.3588058
vn -0.9238094 -0.1335467 0.3588058
vn -0.7939335 -0.1978085 -0.5749274
vn -0.7100413 -0.2099733 -0.6721254
vn -0.8782033 -0.178558 -0.4437073
vn -0.7939335 -0.1978085 -0.5749274
vn -0.4192898 -0.1426112 -0.8965814
vn -0.4741073 -0.1427019 -0.8688258
vn -0.3455584 -0.1416862 -0.9276392
vn -0.4192898 -0.1426112 -0.8965814
vn 0.3590268 0.0853256 -0.9294187
vn 0.3457649 0.08416306 -0.9345391
vn 0.3739955 0.08662447 -0.9233762
vn 0.3590268 0.0853256 -0.9294187
vn 0.913341 0.0207869 -0.4066645
vn 0.9133326 0.02077368 -0.4066841
vn 0.9133521 0.02080415 -0.4066388
vn 0.913341 0.0207869 -0.4066645
vn 0.8371913 0.2904947 0.4633828
vn 0.8371912 0.2904947 0.4633829
vn 0.8371913 0.2904947 0.4633827
vn 0.8371913 0.2904947 0.4633828
vn 0.3287818 0.2323692 0.9153727
vn 0.3287822 0.2323693 0.9153724
vn 0.3287803 0.2323689 0.9153733
vn 0.3287818 0.2323692 0.9153727
vn -0.3287818 0.2323692 0.9153727
vn -0.3287823 0.2323691 0.9153725
vn -0.3287801 0.2323695 0.9153732
vn -0.3287818 0.2323692 0.9153727
vn -0.8536648 0.2499087 0.4569488
vn -0.8536645 0.2499088 0.4569491
vn -0.8536654 0.2499085 0.4569476
vn -0.8536648 0.2499087 0.4569488
vn -0.9127305 0.2671993 -0.3090752
vn -0.9127304 0.2671992 -0.3090759
vn -0.9127312 0.2671997 -0.309073
vn -0.9127305 0.2671993 -0.3090752
vn -0.3825651 0.2703778 -0.8834816
vn -0.3825651 0.2703778 -0.8834816
vn -0.382565 0.2703778 -0.8834817
vn -0.3825651 0.2703778 -0.8834816
vn 0.382565 0.2703778 -0.8834816
vn 0.3825651 0.2703778 -0.8834817
vn 0.382565 0.2703778 -0.8834817
vn 0.382565 0.2703778 -0.8834816
vn 0.9127306 0.2671994 -0.3090748
vn 0.9127303 0.2671995 -0.3090755
vn 0.9127316 0.2671988 -0.3090725
vn 0.9127306 0.2671994 -0.3090748
vn 0.8536649 0.2499087 0.4569484
vn 0.8536647 0.2499086 0.4569488
vn 0.8536656 0.2499091 0.4569468
vn 0.8536649 0.2499087 0.4569484
vn -0.4978636 0.03461016 -0.8665645
vn -0.4978636 0.03461015 -0.8665644
vn -0.4978635 0.03461016 -0.8665645
vn -0.4978636 0.03461016 -0.8665645
vn -0.7140997 -0.4861202 0.5037348
vn -0.7140992 -0.4861203 0.5037354
vn -0.7141008 -0.48612 0.5037336
vn -0.7140997 -0.4861202 0.5037348
vn -0.214368 0.3655464 -0.9057717
vn -0.2143675 0.3655465 -0.9057717
vn -0.2143675 0.3655465 -0.9057717
vn -0.2143675 0.3655465 -0.9057717
vn -0.214367 0.3655466 -0.9057717
vn -0.2143675 0.3655465 -0.9057717
vn -0.4980716 0.3725299 -0.7830366
vn -0.4980714 0.3725298 -0.7830366
vn -0.4980719 0.37253 -0.7830364
vn -0.4980716 0.3725299 -0.7830366
vn -0.06649224 -0.9347771 -0.3489562
vn -0.06649232 -0.9347772 -0.3489561
vn -0.06649207 -0.9347771 -0.3489566
vn -0.06649224 -0.9347771 -0.3489562
vn -0.3100488 -0.4868668 0.8165968
vn -0.3100487 -0.486867 0.8165968
vn -0.3100491 -0.4868666 0.8165969
vn -0.3100488 -0.4868668 0.8165968
vn 0.2439181 0.5179756 -0.8198812
vn 0.2439181 0.5179756 -0.8198813
vn 0.2423893 0.5173631 -0.8207197
vn 0.2426899 0.518007 -0.8202252
vn -0.161959 0.9859901 -0.03990967
vn -0.1619594 0.9859901 -0.03990844
vn -0.1619581 0.9859902 -0.03991223
vn -0.161959 0.9859901 -0.03990967
vn -0.3038785 -0.650836 -0.6957516
vn -0.3038794 -0.6508375 -0.6957499
vn -0.3038776 -0.6508345 -0.6957534
vn -0.3038785 -0.650836 -0.6957516
vn -0.22041 -0.4720669 0.8535644
vn -0.22041 -0.4720672 0.8535643
vn -0.22041 -0.4720666 0.8535646
vn -0.22041 -0.4720669 0.8535644
vn 0.1699909 0.05002886 -0.4415522
vn 0.4519654 0.6539521 -0.4268917
vn -0.2908861 -0.3089568 -0.1203545
vn -0.008911431 0.2949659 -0.1056944
vn 0.3038806 0.6508402 0.6957468
vn 0.3038806 0.6508401 0.6957468
vn 0.3038807 0.6508402 0.6957468
vn 0.3038806 0.6508402 0.6957468
vn -0.4004932 -0.4279183 -0.8102415
vn -0.4004932 -0.4279183 -0.8102414
vn -0.4004931 -0.4279182 -0.8102415
vn -0.4004932 -0.4279183 -0.8102415
vn -0.4697602 -0.5019267 0.7262197
vn -0.4697602 -0.5019266 0.7262197
vn -0.4697603 -0.5019267 0.7262197
vn -0.4697602 -0.5019267 0.7262197
vn 0.5159774 0.5513061 -0.6556135
vn 0.5159774 0.5513061 -0.6556135
vn 0.5159773 0.5513061 -0.6556134
vn 0.5159774 0.5513061 -0.6556135
vn 0.4004962 0.4279214 0.8102383
vn 0.4004961 0.4279214 0.8102384
vn 0.4004962 0.4279215 0.8102382
vn 0.4004962 0.4279214 0.8102383
vn 0.9128723 -0.02385505 -0.4075473
vn 0.9133135 -0.02416514 -0.4065393
vn 0.9128723 -0.02385503 -0.4075472
vn 0.9133136 -0.02416513 -0.4065391
vn 0.9129126 -0.02358142 -0.4074729
vn 0.9128723 -0.02385505 -0.4075473
vn 0.9129127 -0.02358143 -0.4074728
vn 0.9128723 -0.02385503 -0.4075472
vn 0.9133135 -0.02416514 -0.4065393
vn 0.9133538 -0.02389144 -0.406465
vn 0.9133136 -0.02416513 -0.4065391
vn 0.9133538 -0.0238914 -0.406465
vn 0.9133538 -0.02389144 -0.406465
vn 0.9129126 -0.02358142 -0.4074729
vn 0.9133538 -0.0238914 -0.406465
vn 0.9129127 -0.02358143 -0.4074728
vn 0.2545635 -0.8776904 -0.4060258
vn 0.2545635 -0.8776903 -0.4060262
vn 0.2545634 -0.8776907 -0.4060252
vn 0.2545635 -0.8776904 -0.4060258
vn 0.06282872 0.2319597 -0.9706942
vn 0.06282874 0.2319597 -0.9706942
vn 0.06282869 0.2319596 -0.9706942
vn 0.06282872 0.2319597 -0.9706942
vn 0.06637976 -0.2485322 0.9663464
vn 0.06637976 -0.2485322 0.9663464
vn 0.06637976 -0.2485322 0.9663464
vn 0.06637976 -0.2485322 0.9663464
vn 0.2770874 0.9408625 0.1949368
vn 0.2770874 0.9408623 0.1949372
vn 0.2770872 0.9408628 0.1949361
vn 0.2770874 0.9408625 0.1949368
vn 0.1563761 -0.959323 -0.2350446
vn 0.2098554 -0.8955032 -0.3924727
vn 0.06732284 -0.9976366 0.01374295
vn 0.1563761 -0.959323 -0.2350446
vn 0.5736362 0.1223434 -0.809922
vn 0.3638952 0.418765 -0.745822
vn 0.3638952 0.418765 -0.745822
vn 0.3638952 0.418765 -0.745822
vn 0.1541542 0.7151866 -0.6817219
vn 0.3638952 0.418765 -0.745822
vn -0.24402 -0.2017236 0.9485578
vn -0.3126186 -0.5009896 0.7057225
vn -0.3126186 -0.5009896 0.7057225
vn -0.3126186 -0.5009896 0.7057225
vn -0.3812172 -0.8002555 0.462887
vn -0.3126186 -0.5009896 0.7057225
vn -0.125574 0.9226002 0.3647465
vn 0.148131 0.8696841 -0.01444158
vn 0.148131 0.8696841 -0.01444158
vn 0.148131 0.8696841 -0.01444158
vn 0.421836 0.8167681 -0.3936297
vn 0.148131 0.8696841 -0.01444158
vn 0.7529287 -0.3054752 -0.5829093
vn 0.7529288 -0.3054753 -0.5829092
vn 0.7529284 -0.305475 -0.5829097
vn 0.7529287 -0.3054752 -0.5829093
vn -0.3937358 0.2519973 -0.8840077
vn -0.3937358 0.2519974 -0.8840076
vn -0.3937356 0.2519971 -0.8840078
vn -0.3937358 0.2519973 -0.8840077
vn 0.4263677 -0.2113131 0.8795211
vn 0.4263677 -0.2113131 0.8795211
vn 0.4263678 -0.2113131 0.879521
vn 0.4263677 -0.2113131 0.8795211
vn -0.6858495 0.5142438 0.5149404
vn -0.6858371 0.5142384 0.5149626
vn -0.6858829 0.5142586 0.5148813
vn -0.6858495 0.5142438 0.5149404
vn 0.8969817 -0.1087785 -0.4284754
vn 0.660648 -0.1647197 -0.6533465
vn 0.660648 -0.1647197 -0.6533465
vn 0.660648 -0.1647197 -0.6533465
vn 0.4243144 -0.2206609 -0.8782176
vn 0.660648 -0.1647197 -0.6533465
vn 0.2945042 0.06870411 -0.9531774
vn 0.2945042 0.06870411 -0.9531773
vn 0.2945042 0.0687041 -0.9531773
vn 0.2945042 0.06870411 -0.9531774
vn 0.3294072 0.1469807 0.9326776
vn 0.2659352 0.1452605 0.9529837
vn 0.5706522 0.147188 0.8078933
vn 0.3294072 0.1469807 0.9326776
vn 0.635389 0.7719742 -0.01834909
vn 0.6353889 0.7719743 -0.01834951
vn 0.6353893 0.771974 -0.01834742
vn 0.635389 0.7719742 -0.01834909
vn 0.02279555 -0.09510458 -0.9918578
vn 0.1506737 -0.5863342 -0.6809803
vn 0.145833 -0.5251911 -0.6961191
vn 0.1506737 -0.5863342 -0.6809803
vn 0.2622821 -0.8743607 -0.4082905
vn 0.145833 -0.5251911 -0.6961191
vn 0.01620714 -0.01418769 -0.999768
vn 0.02279555 -0.09510458 -0.9918578
vn 0.01620708 -0.01418751 -0.999768
vn 0.01620708 -0.01418751 -0.999768
vn 0.009653348 0.05002281 0.9987014
vn 0.01264278 0.0444771 0.9989303
vn 0.001064469 0.06594111 0.9978229
vn 0.009653348 0.05002281 0.9987014
vn 0.08043259 0.9549671 0.2856018
vn 0.08043266 0.9549659 0.2856059
vn 0.08043246 0.9549694 0.285594
vn 0.08043259 0.9549671 0.2856018
vn 0.2497504 -0.2382454 -0.8548212
vn 0.7076481 -0.6114357 -0.2941528
vn 0.6474847 -0.5484765 -0.4086723
vn 0.7076481 -0.6114357 -0.2941528
vn 0.7500774 -0.652776 -0.1061486
vn 0.6474847 -0.5484765 -0.4086723
vn -0.04539121 -0.03231396 -0.9984465
vn 0.2497504 -0.2382454 -0.8548212
vn 0.2321993 -0.2206406 -0.877661
vn 0.2321993 -0.2206406 -0.877661
vn -0.1129904 0.03020849 0.9931367
vn -0.2231395 0.04766151 0.797532
vn -0.07088294 -0.1559193 0.5240747
vn -0.3154241 -0.1488227 0.5728621
vn 0.04098009 0.5933582 -0.05613579
vn 0.2002261 0.2548272 0.5142539
vn -0.4962364 0.2188951 -0.0619329
vn -0.6510159 0.584065 0.3965354
vn -0.7166381 0.6930942 0.07778384
vn -0.5611454 0.438261 0.5479791
vn -0.6842996 0.5131767 0.5180461
vn -0.6880373 0.5153848 0.5108408
vn -0.6842992 0.5131764 0.5180468
vn -0.6880326 0.5153816 0.5108504
vn -0.6841099 0.5136103 0.5178659
vn -0.6842996 0.5131767 0.5180461
vn -0.6841083 0.5136098 0.5178685
vn -0.6842992 0.5131764 0.5180468
vn -0.6880373 0.5153848 0.5108408
vn -0.68785 0.5158205 0.5106552
vn -0.6880326 0.5153816 0.5108504
vn -0.6878452 0.515818 0.510664
vn -0.68785 0.5158205 0.5106552
vn -0.6841099 0.5136103 0.5178659
vn -0.6878452 0.515818 0.510664
vn -0.6841083 0.5136098 0.5178685
vn -0.7334698 0.3821892 0.5620974
vn -0.7334706 0.3821898 0.5620961
vn -0.733466 0.3821863 0.5621043
vn -0.7334698 0.3821892 0.5620974
vn 0.8200058 -0.5428181 0.1814914
vn 0.8200058 -0.5428185 0.1814895
vn 0.8200054 -0.5428156 0.1815007
vn 0.8200058 -0.5428181 0.1814914
vn -0.8060923 0.5854017 0.08671743
vn -0.806092 0.5854019 0.08671902
vn -0.806092 0.5854019 0.08671902
vn -0.806092 0.5854019 0.08671902
vn -0.8060918 0.5854021 0.08672062
vn -0.806092 0.5854019 0.08671902
vn -0.6348231 0.6154175 0.4671839
vn -0.6348191 0.6154173 0.4671897
vn -0.6348432 0.6154187 0.4671551
vn -0.6348231 0.6154175 0.4671839
vn 0.03502127 -0.998598 0.03969319
vn 0.03502126 -0.9985981 0.03969318
vn 0.03502128 -0.998598 0.0396932
vn 0.03502127 -0.998598 0.03969319
vn 0.6177424 -0.3580268 0.7001507
vn 0.6177424 -0.3580267 0.7001507
vn 0.6177424 -0.3580268 0.7001507
vn 0.6177424 -0.3580268 0.7001507
vn -0.6032394 0.4106566 -0.6837129
vn -0.6032394 0.4106566 -0.6837129
vn -0.6032394 0.4106565 -0.6837129
vn -0.6032394 0.4106566 -0.6837129
vn -0.03504736 0.9985959 -0.03972276
vn -0.03504737 0.9985959 -0.03972277
vn -0.03504734 0.9985959 -0.03972274
vn -0.03504736 0.9985959 -0.03972276
vn -0.6871397 0.5112509 0.5161992
vn -0.6871372 0.5112513 0.5162021
vn -0.6871436 0.5112501 0.5161947
vn -0.6871397 0.5112509 0.5161992
vn -0.6626077 0.5020779 0.5557597
vn -0.6626149 0.5020819 0.5557474
vn -0.6625966 0.5020717 0.5557786
vn -0.6626077 0.5020779 0.5557597
vn -0.7132598 0.5318989 0.4564472
vn -0.7132467 0.5318901 0.4564779
vn -0.7131147 0.5318073 0.4567803
vn -0.7131047 0.5318003 0.4568043
vn -0.684566 0.517236 0.5136501
vn -0.6845513 0.5172322 0.5136735
vn -0.6845887 0.5172421 0.5136138
vn -0.684566 0.517236 0.5136501
vn 0.3779513 -0.8935425 -0.2423519
vn 0.3779734 -0.8935295 -0.2423659
vn 0.3779294 -0.8935557 -0.2423379
vn 0.3779513 -0.8935425 -0.2423519
vn 0.7145403 -0.5286793 -0.4581815
vn 0.7145406 -0.528679 -0.4581816
vn 0.7145401 -0.5286795 -0.4581816
vn 0.7145403 -0.5286793 -0.4581815
vn -0.7131147 0.5318073 0.4567803
vn -0.7131047 0.5318003 0.4568043
vn -0.7129491 0.5317028 0.4571606
vn -0.7129493 0.5317022 0.4571609
vn -0.3786677 0.8931144 0.2428115
vn -0.3787048 0.8930922 0.2428353
vn -0.3786307 0.8931366 0.2427876
vn -0.3786677 0.8931144 0.2428115
vn 0.5156035 0.5507486 -0.6563749
vn 0.5165849 0.5517168 -0.6547885
vn 0.5158089 0.550888 -0.6560962
vn 0.5166379 0.5518537 -0.6546316
vn 0.51535 0.5508789 -0.6564652
vn 0.5156035 0.5507486 -0.6563749
vn 0.5152968 0.550742 -0.6566217
vn 0.5156035 0.5507486 -0.6563749
vn 0.5158089 0.550888 -0.6560962
vn 0.5152968 0.550742 -0.6566217
vn 0.5165849 0.5517168 -0.6547885
vn 0.5163312 0.5518472 -0.6548784
vn 0.5166379 0.5518537 -0.6546316
vn 0.5163312 0.5518472 -0.6548784
vn 0.5161247 0.5517072 -0.6551589
vn 0.5166379 0.5518537 -0.6546316
vn 0.5163312 0.5518472 -0.6548784
vn 0.51535 0.5508789 -0.6564652
vn 0.5161247 0.5517072 -0.6551589
vn 0.5152968 0.550742 -0.6566217
vn 0.806918 0.04758459 0.5887436
vn 0.8069183 0.04758431 0.5887432
vn 0.806917 0.04758542 0.588745
vn 0.806918 0.04758459 0.5887436
vn -0.3417475 -0.3651499 -0.8659528
vn -0.3417475 -0.3651498 -0.8659528
vn -0.3417473 -0.3651501 -0.8659528
vn -0.3417475 -0.3651499 -0.8659528
vn 0.4631113 -0.009320631 0.8862511
vn 0.4631113 -0.009320616 0.8862512
vn 0.4631113 -0.009320676 0.8862512
vn 0.4631113 -0.009320631 0.8862511
vn -0.6664772 0.08885612 -0.7402112
vn -0.666477 0.08885536 -0.7402115
vn -0.6664779 0.0888584 -0.7402104
vn -0.6664772 0.08885612 -0.7402112
vn 0.833733 0.4872576 -0.2597487
vn 0.833733 0.4872575 -0.2597487
vn 0.8337328 0.4872578 -0.2597486
vn 0.833733 0.4872576 -0.2597487
vn -0.6766794 -0.7230149 0.1391206
vn -0.6766789 -0.7230152 0.1391208
vn -0.6766807 -0.7230136 0.1391202
vn -0.6766794 -0.7230149 0.1391206
vn 0.6719388 0.7179474 -0.1817962
vn 0.6719387 0.7179474 -0.1817962
vn 0.6719389 0.7179471 -0.1817963
vn 0.6719388 0.7179474 -0.1817962
vn -0.8841249 -0.4467569 0.1368625
vn -0.8841233 -0.4467602 0.1368623
vn -0.8841233 -0.4467602 0.1368623
vn -0.8841233 -0.4467602 0.1368623
vn -0.8841217 -0.4467635 0.1368621
vn -0.8841233 -0.4467602 0.1368623
vn -0.3939949 0.2516793 -0.8839828
vn -0.3939949 0.2516793 -0.8839827
vn -0.3939949 0.2516793 -0.8839827
vn -0.3939949 0.2516793 -0.8839828
vn -0.3947704 0.2527695 -0.8833255
vn -0.3947705 0.2527696 -0.8833254
vn -0.3947702 0.2527694 -0.8833256
vn -0.3947704 0.2527695 -0.8833255
vn -0.3920478 0.2512844 -0.8849602
vn -0.3920466 0.2512839 -0.8849609
vn -0.3920496 0.251285 -0.8849593
vn -0.3920478 0.2512844 -0.8849602
vn -0.3934742 0.2523133 -0.8840339
vn -0.393474 0.2523129 -0.8840342
vn -0.3934746 0.2523142 -0.8840335
vn -0.3934742 0.2523133 -0.8840339
vn -0.9997071 0.01732201 -0.01689945
vn -0.9997072 0.01733263 -0.01688664
vn -0.9997069 0.01725965 -0.01697469
vn -0.9997071 0.01732201 -0.01689945
vn -0.7910542 0.5786368 0.1985262
vn -0.791053 0.5786381 0.1985269
vn -0.7910607 0.5786292 0.1985224
vn -0.7910542 0.5786368 0.1985262
vn 0.8746653 -0.3845091 -0.2951495
vn 0.8746657 -0.3845091 -0.2951485
vn 0.8746631 -0.3845095 -0.2951558
vn 0.8746653 -0.3845091 -0.2951495
vn 0.7309613 0.3861167 0.5626806
vn 0.7309614 0.3861165 0.5626805
vn 0.7309601 0.3861175 0.5626816
vn 0.7309613 0.3861167 0.5626806
vn -0.5609956 0.0170629 -0.8276429
vn -0.5609955 0.01706254 -0.827643
vn -0.5609961 0.01706393 -0.8276425
vn -0.5609956 0.0170629 -0.8276429
vn -0.5618207 0.01821406 -0.8270584
vn -0.5618199 0.01821347 -0.827059
vn -0.5618231 0.01821573 -0.8270569
vn -0.5618207 0.01821406 -0.8270584
vn -0.5589607 0.01634491 -0.8290331
vn -0.5589617 0.01634531 -0.8290324
vn -0.5589579 0.01634379 -0.8290349
vn -0.5589607 0.01634491 -0.8290331
vn -0.5606837 0.01757449 -0.8278435
vn -0.5606849 0.01757546 -0.8278427
vn -0.5606804 0.01757178 -0.8278459
vn -0.5606837 0.01757449 -0.8278435
vn -0.7179709 0.1751749 -0.6736702
vn -0.5365058 0.05630912 -0.8420159
vn -0.9011505 0.3496878 -0.2562154
vn -0.7179709 0.1751749 -0.6736702
vn 0.8337533 -0.04118821 0.5505987
vn 0.8164862 -0.3188182 0.4813575
vn 0.7195913 0.4021302 0.5661094
vn 0.8337533 -0.04118821 0.5505987
vn -0.5991525 -0.09864626 -0.7945346
vn -0.1515737 -0.1645812 -0.9746478
vn -0.97416 0.1085078 0.1980867
vn -0.5991525 -0.09864626 -0.7945346
vn 0.8702387 0.4709778 0.1444456
vn 0.7352347 0.407885 0.5413499
vn 0.8389028 0.4431933 -0.3159458
vn 0.8702387 0.4709778 0.1444456
vn -0.5611454 0.438261 0.5479791
vn -0.07088294 -0.1559193 0.5240747
vn -0.4028766 0.619496 0.5805732
vn -0.02729711 0.02843843 -0.02987168
vn -0.07088294 -0.1559193 0.5240747
vn -0.2231395 0.04766151 0.797532
vn -0.02729711 0.02843843 -0.02987168
vn -0.04962696 -0.09211551 0.09151468
vn -0.2231395 0.04766151 0.797532
vn -0.6510159 0.584065 0.3965354
vn -0.04962696 -0.09211551 0.09151468
vn -0.4634535 0.6286336 0.1275579
vn -0.6510159 0.584065 0.3965354
vn -0.5611454 0.438261 0.5479791
vn -0.4634535 0.6286336 0.1275579
vn -0.4028766 0.619496 0.5805732
vn -0.4028766 0.619496 0.5805732
vn -0.02729711 0.02843843 -0.02987168
vn 0.02164459 0.6674575 0.06819701
vn 0.3405893 0.02166201 0.2666654
vn -0.02729711 0.02843843 -0.02987168
vn -0.04962696 -0.09211551 0.09151468
vn 0.3405893 0.02166201 0.2666654
vn -0.1458738 -0.2820734 0.2698461
vn -0.04962696 -0.09211551 0.09151468
vn -0.4634535 0.6286336 0.1275579
vn -0.1458738 -0.2820734 0.2698461
vn -0.4648193 0.3637187 0.07138279
vn -0.4634535 0.6286336 0.1275579
vn -0.4028766 0.619496 0.5805732
vn -0.4648193 0.3637187 0.07138279
vn 0.02164459 0.6674575 0.06819701
vn 0.02164459 0.6674575 0.06819701
vn 0.3405893 0.02166201 0.2666654
vn 0.04098009 0.5933582 -0.05613579
vn 0.2002261 0.2548272 0.5142539
vn 0.3405893 0.02166201 0.2666654
vn -0.1458738 -0.2820734 0.2698461
vn 0.2002261 0.2548272 0.5142539
vn -0.3154241 -0.1488227 0.5728621
vn -0.1458738 -0.2820734 0.2698461
vn -0.4648193 0.3637187 0.07138279
vn -0.3154241 -0.1488227 0.5728621
vn -0.4962364 0.2188951 -0.0619329
vn -0.4648193 0.3637187 0.07138279
vn 0.02164459 0.6674575 0.06819701
vn -0.4962364 0.2188951 -0.0619329
vn 0.04098009 0.5933582 -0.05613579
vn 0.3896294 0.4163098 0.8215079
vn 0.3896291 0.4163097 0.821508
vn 0.3896302 0.4163098 0.8215074
vn 0.3896294 0.4163098 0.8215079
vn 0.3908471 0.4160832 0.821044
vn 0.3908468 0.4160835 0.821044
vn 0.3908482 0.4160821 0.8210441
vn 0.3908471 0.4160832 0.821044
vn 0.3890137 0.4177985 0.8210438
vn 0.3890136 0.4177985 0.8210437
vn 0.3890137 0.4177984 0.8210438
vn 0.3890137 0.4177985 0.8210438
vn 0.3902354 0.4169566 0.8208918
vn 0.3902355 0.4169566 0.8208919
vn 0.3902352 0.4169568 0.8208919
vn 0.3902354 0.4169566 0.8208918
vn 0.7959123 0.6029197 0.05487737
vn 0.6623219 0.707673 0.2460256
vn 0.8664547 0.4883707 -0.1036843
vn 0.7959123 0.6029197 0.05487737
vn -0.327524 0.6338348 0.7007007
vn -0.3015645 0.653083 0.694652
vn -0.3493447 0.6169086 0.7052532
vn -0.327524 0.6338348 0.7007007
vn -0.01422274 -0.7616687 -0.6478105
vn -0.01396012 -0.7616318 -0.6478596
vn -0.01445637 -0.7617015 -0.6477668
vn -0.01422274 -0.7616687 -0.6478105
vn -0.7965279 -0.5987097 -0.08420186
vn -0.6635774 -0.7090149 -0.2386686
vn -0.8764405 -0.4787296 0.05167121
vn -0.7965279 -0.5987097 -0.08420186
vn 0.2423893 0.5173631 -0.8207197
vn 0.2426899 0.518007 -0.8202252
vn 0.2238621 0.1741518 -0.5828543
vn 0.4237997 0.6023714 -0.419655
vn 0.2411619 0.5169591 -0.8213366
vn 0.2423893 0.5173631 -0.8207197
vn -0.194755 -0.06701688 -0.4593326
vn 0.2238621 0.1741518 -0.5828543
vn 0.2426899 0.518007 -0.8202252
vn 0.2416128 0.5179249 -0.8205951
vn 0.4237997 0.6023714 -0.419655
vn 0.005182296 0.3612027 -0.296133
vn 0.2416128 0.5179249 -0.8205951
vn 0.2411619 0.5169591 -0.8213366
vn 0.005182296 0.3612027 -0.296133
vn -0.194755 -0.06701688 -0.4593326
vn 0.2238621 0.1741518 -0.5828543
vn 0.4237997 0.6023714 -0.419655
vn 0.1701383 -0.1762273 -0.2982318
vn 0.5813305 0.7044504 -0.1244093
vn -0.194755 -0.06701688 -0.4593326
vn 0.2238621 0.1741518 -0.5828543
vn -0.5939031 -0.6865852 0.06628792
vn 0.1701383 -0.1762273 -0.2982318
vn 0.4237997 0.6023714 -0.419655
vn 0.005182296 0.3612027 -0.296133
vn 0.5813305 0.7044504 -0.1244093
vn -0.1827121 0.1940938 0.240112
vn 0.005182296 0.3612027 -0.296133
vn -0.194755 -0.06701688 -0.4593326
vn -0.1827121 0.1940938 0.240112
vn -0.5939031 -0.6865852 0.06628792
vn 0.1701383 -0.1762273 -0.2982318
vn 0.5813305 0.7044504 -0.1244093
vn 0.1699909 0.05002886 -0.4415522
vn 0.4519654 0.6539521 -0.4268917
vn -0.5939031 -0.6865852 0.06628792
vn 0.1701383 -0.1762273 -0.2982318
vn -0.2908861 -0.3089568 -0.1203545
vn 0.1699909 0.05002886 -0.4415522
vn 0.5813305 0.7044504 -0.1244093
vn -0.1827121 0.1940938 0.240112
vn 0.4519654 0.6539521 -0.4268917
vn -0.008911431 0.2949659 -0.1056944
vn -0.1827121 0.1940938 0.240112
vn -0.5939031 -0.6865852 0.06628792
vn -0.008911431 0.2949659 -0.1056944
vn -0.2908861 -0.3089568 -0.1203545
vn -0.7907364 0.5784715 0.2002664
vn -0.7907365 0.5784716 0.200266
vn -0.7907363 0.5784714 0.2002671
vn -0.7907364 0.5784715 0.2002664
vn -0.7903814 0.5792939 0.199288
vn -0.7903817 0.5792937 0.1992875
vn -0.790381 0.5792943 0.1992886
vn -0.7903814 0.5792939 0.199288
vn -0.7927191 0.5778732 0.1940594
vn -0.7927197 0.577873 0.1940578
vn -0.7927182 0.5778736 0.194062
vn -0.7927191 0.5778732 0.1940594
vn -0.791369 0.5788013 0.1967843
vn -0.7913688 0.5788016 0.1967845
vn -0.7913694 0.5788009 0.1967841
vn -0.791369 0.5788013 0.1967843
vn -0.09173387 0.1025496 0.990489
vn -0.09173385 0.1025496 0.990489
vn -0.09173395 0.1025496 0.990489
vn -0.09173387 0.1025496 0.990489
vn 0.8998999 0.1330046 0.415319
vn 0.8999 0.1330047 0.4153188
vn 0.8998994 0.1330042 0.4153203
vn 0.8998999 0.1330046 0.415319
vn -0.5830047 0.03782942 -0.8115876
vn -0.5830048 0.03782946 -0.8115875
vn -0.5830039 0.0378292 -0.8115882
vn -0.5830047 0.03782942 -0.8115876
vn -0.1996708 0.1085357 -0.9738334
vn -0.1996701 0.1085358 -0.9738337
vn -0.1996746 0.1085352 -0.9738327
vn -0.1996708 0.1085357 -0.9738334

vt 0.4835296 0.1150883
vt 0.503328 0.2935697
vt 0.5141292 0.1150883
vt 0.5336844 0.2897205
vt 0.4835296 0.117506
vt 0.4916296 0.2930429
vt 0.5141292 0.117506
vt 0.5221875 0.2914474
vt 0.4835296 0.1175223
vt 0.4754712 0.2914638
vt 0.5141292 0.1175223
vt 0.5060291 0.2930592
vt 0.4835296 0.1151044
vt 0.4639743 0.2897366
vt 0.5141292 0.1151044
vt 0.4943307 0.2935858
vt 0.4835296 0.1116939
vt 0.4637311 0.2901754
vt 0.5141292 0.1116939
vt 0.4940875 0.2940246
vt 0.4835296 0.1093512
vt 0.475228 0.2925921
vt 0.5141292 0.1093512
vt 0.5057859 0.2941878
vt 0.4835296 0.109366
vt 0.4918728 0.2942025
vt 0.5141292 0.109366
vt 0.5224307 0.2926068
vt 0.4835296 0.1117094
vt 0.5035712 0.29404
vt 0.5141292 0.1117094
vt 0.5339276 0.2901908
vt 0.4705591 0.1416614
vt 0.4988294 0.1133911
vt 0.4588491 0.1133911
vt 0.4988294 0.1533713
vt 0.4988294 0.1133911
vt 0.4705591 0.1416614
vt 0.5270996 0.1416614
vt 0.5388096 0.1133911
vt 0.4988294 0.1133911
vt 0.5270996 0.1416614
vt 0.5270996 0.08512081
vt 0.4988294 0.07341088
vt 0.4988294 0.1133911
vt 0.5270996 0.08512081
vt 0.4705591 0.08512081
vt 0.4705591 0.08512081
vt 0.5538948 0.01721909
vt 0.5538948 0.01052546
vt 0.5491617 0.01525857
vt 0.5586279 0.01525857
vt 0.5538948 0.01052546
vt 0.5538948 0.01721909
vt 0.5605885 0.01052546
vt 0.5586279 0.005792338
vt 0.5538948 0.01052546
vt 0.5605885 0.01052546
vt 0.5538948 0.003831799
vt 0.5538948 0.01052546
vt 0.5586279 0.005792338
vt 0.5491617 0.005792338
vt 0.5472012 0.01052546
vt 0.5538948 0.01052546
vt 0.5491617 0.005792338
vt 0.5472012 0.01052546
vt 0.5052928 0.2967719
vt 0.4747389 0.2951015
vt 0.4904619 0.4124316
vt 0.4601054 0.4085871
vt 0.5229254 0.2951039
vt 0.4923715 0.2967752
vt 0.5375623 0.4085892
vt 0.5072059 0.4124343
vt 0.5342532 0.2920472
vt 0.5039005 0.2959264
vt 0.5691496 0.4033099
vt 0.5399188 0.4123571
vt 0.5335663 0.2867099
vt 0.5032135 0.2905883
vt 0.5695814 0.4031416
vt 0.5403505 0.4121884
vt 0.522216 0.2826246
vt 0.4916619 0.2842911
vt 0.5379848 0.4087878
vt 0.5076279 0.4126299
vt 0.5059955 0.2843886
vt 0.4754412 0.2827228
vt 0.4900324 0.4127279
vt 0.4596755 0.4088862
vt 0.4944395 0.2906657
vt 0.4640867 0.286788
vt 0.4573055 0.4122669
vt 0.4280744 0.4032205
vt 0.4937678 0.2958892
vt 0.4634151 0.2920108
vt 0.4577527 0.4123209
vt 0.4285217 0.4032741
vt 0.4901863 0.4122476
vt 0.4598329 0.408374
vt 0.493342 0.5343325
vt 0.4629886 0.5304589
vt 0.5366539 0.4059296
vt 0.5062895 0.4097153
vt 0.5626914 0.5252473
vt 0.5323269 0.5290331
vt 0.566796 0.3966781
vt 0.5375511 0.4056818
vt 0.5999286 0.5142235
vt 0.5706836 0.5232272
vt 0.5690423 0.397229
vt 0.5398594 0.4064313
vt 0.5909811 0.5173679
vt 0.5618358 0.5261206
vt 0.5380225 0.410874
vt 0.5076675 0.4147352
vt 0.5364186 0.5325719
vt 0.5062305 0.5353051
vt 0.4902844 0.4195413
vt 0.4599182 0.4157694
vt 0.4696919 0.5384222
vt 0.433939 0.5350686
vt 0.5220383 0.3858722
vt 0.5202178 0.3888147
vt 0.5339524 0.392855
vt 0.5321319 0.3957974
vt 0.4557687 0.412871
vt 0.4265857 0.4036687
vt 0.4338299 0.5330099
vt 0.4046469 0.5238076
vt 0.4970394 0.5203064
vt 0.4666682 0.5165752
vt 0.4373459 0.6207936
vt 0.4144569 0.6179816
vt 0.5656961 0.5242281
vt 0.5353606 0.5282406
vt 0.5322585 0.633275
vt 0.5093965 0.6362989
vt 0.6074115 0.497584
vt 0.5784518 0.5074667
vt 0.6214545 0.6078271
vt 0.5996293 0.615275
vt 0.5903606 0.5124708
vt 0.5612805 0.5216834
vt 0.6347571 0.61297
vt 0.615414 0.6184121
vt 0.7058745 0.6268467
vt 0.6989424 0.6277169
vt 0.7177649 0.6492434
vt 0.7125405 0.6498992
vt 0.464967 0.4877064
vt 0.429229 0.4832585
vt 0.4762475 0.6011026
vt 0.4566108 0.5968043
vt 0.4282815 0.4519539
vt 0.3996021 0.4412855
vt 0.4017321 0.5657064
vt 0.380118 0.5576662
vt 0.448866 0.4728068
vt 0.4197816 0.4632976
vt 0.3926235 0.5765415
vt 0.3707042 0.5693749
vt 0.4411733 0.5804268
vt 0.418291 0.5775601
vt 0.4177363 0.6842809
vt 0.4002 0.682084
vt 0.5242454 0.6076105
vt 0.5013563 0.6104221
vt 0.4969948 0.7101285
vt 0.4794533 0.7122833
vt 0.612161 0.6250086
vt 0.5901393 0.6318536
vt 0.5947023 0.7277249
vt 0.5778255 0.7329706
vt 0.6297973 0.6094976
vt 0.6097022 0.6163783
vt 0.6364724 0.7111427
vt 0.620497 0.7171864
vt 0.5919009 0.610778
vt 0.5690166 0.6136278
vt 0.6090566 0.7108034
vt 0.591646 0.7125701
vt 0.4927188 0.6386793
vt 0.4727625 0.6358607
vt 0.5182134 0.7369534
vt 0.5006755 0.734835
vt 0.3489725 0.7361746
vt 0.3461215 0.7370632
vt 0.357758 0.7461823
vt 0.355573 0.7468633
vt 0.3919484 0.5840504
vt 0.3700041 0.576961
vt 0.3826409 0.6887778
vt 0.3658234 0.6833448
vt 0.4182318 0.6758774
vt 0.4006977 0.6736634
vt 0.411035 0.7372624
vt 0.4059522 0.7366206
vt 0.493313 0.6650127
vt 0.475779 0.6672267
vt 0.4880585 0.7279699
vt 0.4829758 0.7286117
vt 0.5802611 0.667626
vt 0.5634232 0.6729952
vt 0.5760425 0.7292873
vt 0.5711616 0.7308436
vt 0.6329174 0.6910522
vt 0.6160877 0.6964471
vt 0.627658 0.7491786
vt 0.6227794 0.7507425
vt 0.6039311 0.7224799
vt 0.5863999 0.7247167
vt 0.5976585 0.7768254
vt 0.5925766 0.7774737
vt 0.5123217 0.736549
vt 0.4947904 0.7343122
vt 0.5061449 0.7893061
vt 0.501063 0.7886577
vt 0.4168941 0.7243194
vt 0.4000644 0.7189246
vt 0.4102023 0.7786148
vt 0.4053238 0.7770509
vt 0.3822622 0.6972601
vt 0.3654242 0.691891
vt 0.3745238 0.7551087
vt 0.3696428 0.7535523
vt 0.5420027 0.5350935
vt 0.5116313 0.5388242
vt 0.556593 0.5613768
vt 0.5422741 0.5631356
vt 0.5576563 0.6135448
vt 0.541137 0.5037206
vt 0.5484778 0.5855566
vt 0.5406896 0.5337786
vt 0.4978039 0.5257913
vt 0.548368 0.627915
vt 0.5269353 0.5518947
vt 0.548368 0.627915
vt 0.5507743 0.6000421
vt 0.5269353 0.5518947
vt 0.573729 0.6192563
vt 0.5965904 0.6162284
vt 0.5726607 0.5913001
vt 0.5834391 0.5898726
vt 0.4407455 0.0240916
vt 0.4530355 0.0165363
vt 0.3706533 0.003658907
vt 0.3766051 0
vt 0.4912773 0.5916849
vt 0.4988997 0.5398823
vt 0.4235216 0.5788054
vt 0.427213 0.5537183
vt 0.4943523 0.5301799
vt 0.5062528 0.5825712
vt 0.5714513 0.5432485
vt 0.5772145 0.5686207
vt 0.4516122 0.2183906
vt 0.4610828 0.2237309
vt 0.5186293 0.191208
vt 0.5232157 0.1937942
vt 0.6069981 0.4563501
vt 0.6001021 0.4574714
vt 0.6616638 0.4930351
vt 0.6547678 0.4941565
vt 0.4136779 0.5771286
vt 0.4186898 0.5522715
vt 0.3559201 0.6087224
vt 0.3609321 0.5838653
vt 0.5716571 0.5432395
vt 0.5774584 0.5686031
vt 0.6288819 0.5757887
vt 0.6346833 0.6011522
vt 0.3846761 0.4698305
vt 0.379479 0.4689856
vt 0.3300106 0.5065157
vt 0.3248135 0.5056708
vt 0.6607377 0.5631658
vt 0.6538149 0.5641078
vt 0.7106633 0.6208352
vt 0.7037405 0.6217771
vt 0.3947576 0.6233323
vt 0.3958054 0.5979967
vt 0.3479962 0.6835959
vt 0.349044 0.6582602
vt 0.6163503 0.6361708
vt 0.6163719 0.6372715
vt 0.618202 0.6388143
vt 0.6182237 0.6399149
vt 0.3306788 0.5812795
vt 0.3254615 0.5805696
vt 0.2807533 0.6389489
vt 0.275536 0.638239
vt 0.4567978 0.4164304
vt 0.4275529 0.4074266
vt 0.4425333 0.4412516
vt 0.4266638 0.4363658
vt 0.4236498 0.5339709
vt 0.4567854 0.4164265
vt 0.4245396 0.5050318
vt 0.4425203 0.4412473
vt 0.4275672 0.4074289
vt 0.3944378 0.5249751
vt 0.426679 0.436368
vt 0.4087015 0.5001534
vt 0.3944227 0.5249696
vt 0.4236676 0.5339732
vt 0.4086871 0.5001483
vt 0.4245565 0.505034
vt 0.6233537 0.03176023
vt 0.6280958 0.04767318
vt 0.6807804 0.03915475
vt 0.6834105 0.04798004
vt 0.4515784 0.5078313
vt 0.4612913 0.4422767
vt 0.3995948 0.4921141
vt 0.4049816 0.4557576
vt 0.5355508 0.4417852
vt 0.543158 0.5076175
vt 0.5885666 0.4575691
vt 0.5927855 0.4940796
vt 0.5603596 0.1134504
vt 0.5678349 0.09862373
vt 0.5093822 0.1065606
vt 0.513528 0.09833771
vt 0.6542169 0.04106086
vt 0.6571445 0.04979197
vt 0.728276 0.065343
vt 0.7340127 0.07221764
vt 0.3852659 0.4861033
vt 0.3942733 0.4504706
vt 0.3306781 0.4775097
vt 0.3942733 0.4504706
vt 0.320554 0.4527385
vt 0.3306781 0.4775097
vt 0.6052046 0.4516828
vt 0.6120664 0.48779
vt 0.6848314 0.4603907
vt 0.6120664 0.48779
vt 0.6653797 0.4860075
vt 0.6848314 0.4603907
vt 0.3504014 0.04828032
vt 0.3535279 0.03961847
vt 0.3041712 0.08028775
vt 0.3535279 0.03961847
vt 0.3099365 0.07350029
vt 0.3041712 0.08028775
vt 0.3381696 0.4687144
vt 0.328975 0.4692259
vt 0.3044387 0.5709478
vt 0.3009839 0.57114
vt 0.4079914 0.5048129
vt 0.3787154 0.4825929
vt 0.3513683 0.5915346
vt 0.3403683 0.5831857
vt 0.616524 0.4835895
vt 0.587082 0.5055893
vt 0.6527531 0.5828742
vt 0.6416907 0.5911402
vt 0.7131056 0.480449
vt 0.7123049 0.4803995
vt 0.715562 0.4889423
vt 0.7152612 0.4889237
vt 0.4114179 0.6209379
vt 0.3893896 0.6141138
vt 0.4019151 0.6700369
vt 0.3893896 0.6141138
vt 0.3963886 0.6542019
vt 0.4019151 0.6700369
vt 0.5064316 0.7342085
vt 0.4781115 0.6353486
vt 0.4748468 0.7090741
vt 0.4677418 0.6842718
vt 0.4502527 0.5946231
vt 0.424217 0.6964887
vt 0.4558505 0.6349604
vt 0.4493186 0.6744931
vt 0.9110084 0.2367389
vt 0.9195341 0.2212581
vt 0.8777665 0.2328172
vt 0.8799054 0.2289333
vt 0.4951771 0.6206574
vt 0.4927575 0.6039895
vt 0.4275578 0.6265312
vt 0.4927575 0.6039895
vt 0.4263089 0.6249272
vt 0.4275578 0.6265312
vt 0.5051396 0.701678
vt 0.4978416 0.6769319
vt 0.4339666 0.6953117
vt 0.4339666 0.6953117
vt 0.4993776 0.6571712
vt 0.4915825 0.6965571
vt 0.56595 0.6778278
vt 0.5619265 0.690831
vt 0.5545579 0.0525877
vt 0.5563582 0.0485357
vt 0.4839835 0.05192517
vt 0.4849128 0.04983371
vt 0.3715025 0.5767669
vt 0.3687142 0.5756977
vt 0.3398769 0.6417926
vt 0.3687142 0.5756977
vt 0.3370913 0.6421762
vt 0.3398769 0.6417926
vt 0.4407122 0.6929945
vt 0.4369635 0.6802163
vt 0.3920118 0.7436787
vt 0.3920118 0.7436787
vt 0.5790041 0.6798741
vt 0.574903 0.692857
vt 0.6277035 0.73509
vt 0.574903 0.692857
vt 0.622732 0.7451264
vt 0.6277035 0.73509
vt 0.6233359 0.5623176
vt 0.6233359 0.5623176
vt 0.649917 0.6273819
vt 0.6520374 0.6275918
vt 0.6663448 0.4585793
vt 0.6571535 0.4580117
vt 0.6697937 0.474578
vt 0.6636329 0.4741975
vt 0.6953827 0.5554923
vt 0.6667893 0.458109
vt 0.6894687 0.5393692
vt 0.6703028 0.4740936
vt 0.6565286 0.4583774
vt 0.6899207 0.5564173
vt 0.6629177 0.4745991
vt 0.6853002 0.5403147
vt 0.6910838 0.555729
vt 0.6945373 0.5559424
vt 0.6863743 0.5396522
vt 0.6886891 0.5397953
vt 0.6704281 0.4905875
vt 0.6642656 0.4902343
vt 0.6814896 0.5146878
vt 0.6802471 0.5146167
vt 0.4504196 0.5943645
vt 0.4372157 0.5276271
vt 0.43981 0.5676011
vt 0.4371476 0.5541447
vt 0.6070659 0.5048481
vt 0.6093624 0.5742328
vt 0.6158731 0.5326391
vt 0.6093624 0.5742328
vt 0.6163362 0.5466294
vt 0.6158731 0.5326391
vt 0.6854201 0.5204415
vt 0.6877341 0.520597
vt 0.6833156 0.4920486
vt 0.6837823 0.49208
vt 0.6819254 0.2296938
vt 0.6811461 0.2287233
vt 0.6538777 0.254475
vt 0.6530984 0.2535045
vt 0.5654893 0.5698326
vt 0.5590346 0.5577288
vt 0.5280622 0.5698326
vt 0.5216075 0.5577288
vt 0.4385656 0.5581566
vt 0.4321474 0.5705964
vt 0.4759926 0.5581566
vt 0.4695745 0.5705964
vt 0.3079169 0.2287584
vt 0.3076241 0.229123
vt 0.3359646 0.2535397
vt 0.3356718 0.2539043
vt 0.683722 0.4798019
vt 0.6824798 0.4797253
vt 0.6842248 0.482133
vt 0.6834242 0.4820836
vt 0.6896334 0.4897002
vt 0.6854627 0.4766323
vt 0.6887169 0.4873717
vt 0.6860287 0.4789489
vt 0.6791595 0.4826638
vt 0.6832251 0.4960583
vt 0.6800109 0.4850572
vt 0.6826313 0.4936906
vt 0.687044 0.4917788
vt 0.6875107 0.4918077
vt 0.686358 0.4894361
vt 0.6866589 0.4894548
vt 0.7880247 0.157484
vt 0.7875466 0.1568398
vt 0.8024266 0.1826203
vt 0.8019485 0.1819761
vt 0.3146743 0.4942799
vt 0.3168018 0.4856982
vt 0.2857044 0.4942799
vt 0.2878319 0.4856982
vt 0.6800603 0.4850077
vt 0.6826851 0.4936398
vt 0.7090302 0.4850077
vt 0.7116549 0.4936398
vt 0.2021201 0.1553433
vt 0.2019406 0.1555854
vt 0.1877235 0.1804826
vt 0.1875439 0.1807247
vt 0.5869548 0.591535
vt 0.5874566 0.6175487
vt 0.6010555 0.6197429
vt 0.6012375 0.6291746
vt 0.6310892 0.6540121
vt 0.5872664 0.5915791
vt 0.6172931 0.6424045
vt 0.5872664 0.5915791
vt 0.6014044 0.6197684
vt 0.6172931 0.6424045
vt 0.5873136 0.6174395
vt 0.6310194 0.6799545
vt 0.601088 0.629073
vt 0.6310194 0.6799545
vt 0.6169342 0.6517388
vt 0.601088 0.629073
vt 0.6314493 0.67994
vt 0.6309271 0.6539267
vt 0.6173266 0.6517431
vt 0.6171373 0.6423115
vt 0.357473 0.6288644
vt 0.3522836 0.6367422
vt 0.3822013 0.6664969
vt 0.3804945 0.6690879
vt 0.694576 0.6149032
vt 0.6757937 0.5946037
vt 0.6620384 0.6416582
vt 0.655861 0.6349818
vt 0.3185528 0.5954238
vt 0.3003127 0.6162118
vt 0.3426145 0.6309643
vt 0.3366154 0.6378015
vt 0.6794661 0.6410627
vt 0.6743107 0.6331627
vt 0.6421066 0.6607674
vt 0.6404111 0.6581691
vt 0.517126 0.6697784
vt 0.5162078 0.6727421
vt 0.5312087 0.6730305
vt 0.5308829 0.6740821
vt 0.0002350217 0.1836563
vt 0.009331018 0.1836563
vt 0 0.170555
vt 0.003227469 0.170555
vt 0.9909041 0.1974509
vt 1 0.1974509
vt 0.9953458 0.1834001
vt 0.9985732 0.1834001
vt 0.5043272 0.6868974
vt 0.5032056 0.6840045
vt 0.4905656 0.683723
vt 0.5032056 0.6840045
vt 0.4901676 0.6826966
vt 0.4905656 0.683723
vt -1.453027 0.6987427
vt -1.819176 0.4208784
vt -1.64094 0.8615257
vt -1.869209 0.6882965
vt -2.159651 1.78504
vt -1.451858 0.7002557
vt -2.08099 1.539375
vt -1.63973 0.8630865
vt -1.821617 0.4194367
vt -2.301823 1.67723
vt -1.871801 0.6868264
vt -2.171176 1.470974
vt -2.299393 1.67931
vt -2.161831 1.783731
vt -2.168836 1.472997
vt -2.083076 1.538096
vt 0.2566831 1.086587
vt 0.2065466 1.050411
vt 0.1298908 1.255931
vt 0.1213539 1.249771
vt 0.8437558 2.764137
vt 0.8328999 2.669253
vt 0.8124518 2.799212
vt 0.8106032 2.783054
vt -0.9751807 1.136342
vt -1.144019 1.958538
vt -0.8852577 2.13717
vt -0.9140076 2.277174
vt 1.264061 0.2213467
vt 1.180818 0.2896355
vt 1.493751 0.5402142
vt 1.479576 0.5518425
vt -1.405053 0.6033515
vt -1.63743 0.435674
vt -1.648853 0.8174148
vt -1.73131 0.7579164
vt -1.991226 1.389968
vt -1.403565 0.605057
vt -1.855888 1.097643
vt -1.647362 0.8191247
vt -1.641038 0.4345598
vt -2.035944 1.358569
vt -1.734932 0.7567984
vt -1.87506 1.084674
vt -2.032843 1.360434
vt -1.993274 1.388986
vt -1.871969 1.086533
vt -1.857929 1.096664
vt -1.813857 1.007454
vt -1.895594 0.9469703
vt -1.900264 1.266295
vt -1.923398 1.222687
vt 2.223043 0.8725086
vt 2.02323 0.5876756
vt 2.157077 1.021264
vt 2.117022 0.8304374
vt -1.535696 0.8484052
vt -1.674024 1.177044
vt -1.55948 1.126995
vt -1.619282 1.321578
vt 1.169129 -0.001515765
vt 1.156078 0.009861999
vt 1.133205 0.1662923
vt 1.126066 0.1696444
vt 1.475585 3.760668
vt 1.587142 3.632028
vt 1.492506 3.540815
vt 1.564263 3.48893
vt -1.644295 3.481222
vt -0.9944385 2.94021
vt -1.600438 3.34302
vt -1.139285 3.121666
vt 1.036971 2.922798
vt 1.009957 2.932256
vt 1.146001 3.132154
vt 1.128892 3.135865
vt 0.1687997 3.081025
vt -0.1578519 3.910807
vt 0.1417273 3.315267
vt -0.08884318 3.747613
vt -1.310807 -1.523448
vt -1.348046 -1.442967
vt -1.293474 -1.336129
vt -1.300677 -1.320562
vt 2.816468 -0.278515
vt 2.304658 -0.3175194
vt 2.741755 -0.1706045
vt 2.642761 -0.1781488
vt -2.29514 -0.2987401
vt -2.289496 -0.3153123
vt -2.633441 -0.1598533
vt -2.632349 -0.1630587
vt -2.443535 -0.5605853
vt -2.950538 -0.5767689
vt -2.782163 -0.3991531
vt -2.880227 -0.4022832
vt -0.7886831 1.771913
vt -0.8009826 1.759958
vt -1.041053 2.13694
vt -1.04418 2.133901
vt 1.200879 3.516266
vt 1.113399 3.46932
vt 0.9131193 3.857106
vt 0.890882 3.845173
vt 1.232566 2.10645
vt 1.229276 2.107253
vt 1.400147 2.509806
vt 1.39931 2.51001
vt -0.9515734 3.58452
vt -1.03291 3.63939
vt -0.7045075 3.945191
vt -0.7251832 3.959139
vt -1.922883 2.483765
vt -2.151045 2.743701
vt -1.87877 2.714223
vt -1.944221 2.788789
vt -1.620468 2.929294
vt -1.921571 2.48494
vt -1.790945 2.842841
vt -1.87732 2.715372
vt -2.151448 2.743133
vt -1.697534 3.013298
vt -1.944631 2.788255
vt -1.81442 2.865755
vt -1.69607 3.014331
vt -1.62106 2.92881
vt -1.813035 2.866851
vt -1.791518 2.842318
vt 3.279253 -0.1813929
vt 3.378469 -0.1813929
vt 3.885824 -0.8227723
vt 3.976751 -0.8047892
vt -1.994917 1.603854
vt -2.013683 1.451024
vt -2.51514 2.260521
vt -2.585195 2.123759
vt -2.251348 -1.734866
vt -2.148856 -1.846474
vt -2.592728 -2.529395
vt -2.467725 -2.615042
vt -3.350792 -0.319131
vt -3.31816 -0.3191309
vt -3.921057 -0.9250789
vt -3.891151 -0.9301794
vt 1.0668 1.454141
vt 1.139256 1.771364
vt 1.320287 1.687204
vt 1.346127 1.800335
vt 1.782904 1.860977
vt 1.067083 1.454188
vt 1.576013 1.832149
vt 1.32073 1.687076
vt 1.139194 1.770821
vt 1.8547 2.178165
vt 1.346062 1.79981
vt 1.601233 1.945081
vt 1.855483 2.177668
vt 1.782835 1.860489
vt 1.601855 1.944759
vt 1.575946 1.831643
vt 0.5468806 2.157265
vt 0.5164988 2.269261
vt 1.260713 2.730722
vt 1.253224 2.758329
vt -2.275434 -0.4340942
vt -1.98181 -0.4340943
vt -2.74334 -1.036987
vt -2.670961 -1.036987
vt 2.060232 -0.3098759
vt 2.353857 -0.3098758
vt 2.690294 -0.9303376
vt 2.762673 -0.9303377
vt -0.3412815 2.520044
vt -0.3807895 2.410931
vt -0.985091 2.891006
vt -0.9948298 2.864109
vt 1.583495 2.555429
vt 1.579444 2.583746
vt 1.874899 2.685269
vt 1.870848 2.713586
vt -2.743335 -0.6404748
vt -2.670956 -0.6404749
vt -2.992567 -0.839619
vt -2.920188 -0.839619
vt 2.690295 -0.628805
vt 2.762675 -0.628805
vt 2.939527 -0.8279492
vt 3.011906 -0.8279492
vt -1.61695 2.638518
vt -1.621001 2.610201
vt -1.908355 2.768357
vt -1.912406 2.740039
vt 0.9946533 2.327487
vt 0.9018623 1.525323
vt 0.9318637 2.273796
vt 0.8742298 1.77556
vt 0.72774 2.625988
vt 0.9922369 2.329255
vt 0.7651973 2.459831
vt 0.9294801 2.275526
vt 0.8873214 1.528598
vt 0.695563 2.49019
vt 0.8585364 1.778706
vt 0.7394325 2.375964
vt 0.7042356 2.490031
vt 0.7196939 2.626663
vt 0.7478645 2.375713
vt 0.7574659 2.460578
vt 2.435983 1.169745
vt 2.145064 0.7611785
vt 2.369409 1.801877
vt 2.314013 1.724081
vt 0.8887583 1.018901
vt 0.6938696 0.8673239
vt 0.7698883 1.530623
vt 0.7327787 1.50176
vt -1.509343 0.8399476
vt -1.873989 1.327735
vt -1.701645 1.798459
vt -1.771078 1.891341
vt -2.34436 1.333114
vt -2.393836 1.40273
vt -2.25913 1.899663
vt -2.268551 1.912919

g Tree (1)_0
usemtl Tree_texture
f 3/3/3 4/4/4 2/2/2 1/1/1
f 7/7/7 8/8/8 6/6/6 5/5/5
f 11/11/11 12/12/12 10/10/10 9/9/9
f 15/15/15 16/16/16 14/14/14 13/13/13
f 19/19/19 20/20/20 18/18/18 17/17/17
f 23/23/23 24/24/24 22/22/22 21/21/21
f 27/27/27 28/28/28 26/26/26 25/25/25
f 31/31/31 32/32/32 30/30/30 29/29/29
f 35/35/35 48/48/48 34/34/34 33/33/33
f 39/39/39 36/36/36 38/38/38 37/37/37
f 43/43/43 40/40/40 42/42/42 41/41/41
f 47/47/47 44/44/44 46/46/46 45/45/45
f 51/51/51 66/66/66 50/50/50 49/49/49
f 55/55/55 52/52/52 54/54/54 53/53/53
f 62/62/62 59/59/59 61/61/61 60/60/60
f 69/69/69 70/70/70 68/68/68 67/67/67
f 73/73/73 74/74/74 72/72/72 71/71/71
f 77/77/77 78/78/78 76/76/76 75/75/75
f 81/81/81 82/82/82 80/80/80 79/79/79
f 85/85/85 86/86/86 84/84/84 83/83/83
f 89/89/89 90/90/90 88/88/88 87/87/87
f 93/93/93 94/94/94 92/92/92 91/91/91
f 97/97/97 98/98/98 96/96/96 95/95/95
f 101/101/101 102/102/102 100/100/100 99/99/99
f 105/105/105 106/106/106 104/104/104 103/103/103
f 109/109/109 110/110/110 108/108/108 107/107/107
f 113/113/113 114/114/114 112/112/112 111/111/111
f 117/117/117 118/118/118 116/116/116 115/115/115
f 121/121/121 122/122/122 120/120/120 119/119/119
f 125/125/125 126/126/126 124/124/124 123/123/123
f 129/129/129 130/130/130 128/128/128 127/127/127
f 133/133/133 134/134/134 132/132/132 131/131/131
f 137/137/137 138/138/138 136/136/136 135/135/135
f 141/141/141 142/142/142 140/140/140 139/139/139
f 145/145/145 146/146/146 144/144/144 143/143/143
f 149/149/149 150/150/150 148/148/148 147/147/147
f 153/153/153 154/154/154 152/152/152 151/151/151
f 157/157/157 158/158/158 156/156/156 155/155/155
f 161/161/161 162/162/162 160/160/160 159/159/159
f 165/165/165 166/166/166 164/164/164 163/163/163
f 169/169/169 170/170/170 168/168/168 167/167/167
f 173/173/173 174/174/174 172/172/172 171/171/171
f 177/177/177 178/178/178 176/176/176 175/175/175
f 181/181/181 182/182/182 180/180/180 179/179/179
f 185/185/185 186/186/186 184/184/184 183/183/183
f 189/189/189 190/190/190 188/188/188 187/187/187
f 193/193/193 194/194/194 192/192/192 191/191/191
f 197/197/197 198/198/198 196/196/196 195/195/195
f 201/201/201 202/202/202 200/200/200 199/199/199
f 205/205/205 206/206/206 204/204/204 203/203/203
f 209/209/209 210/210/210 208/208/208 207/207/207
f 213/213/213 214/214/214 212/212/212 211/211/211
f 217/217/217 218/218/218 216/216/216 215/215/215
f 221/221/221 222/222/222 220/220/220 219/219/219
f 225/225/225 226/226/226 224/224/224 223/223/223
f 229/229/229 230/230/230 228/228/228 227/227/227
f 233/233/233 234/234/234 232/232/232 231/231/231
f 243/243/243 244/244/244 242/242/242 241/241/241
f 247/247/247 248/248/248 246/246/246 245/245/245
f 251/251/251 252/252/252 250/250/250 249/249/249
f 255/255/255 256/256/256 254/254/254 253/253/253
f 259/259/259 260/260/260 258/258/258 257/257/257
f 263/263/263 264/264/264 262/262/262 261/261/261
f 267/267/267 268/268/268 266/266/266 265/265/265
f 271/271/271 272/272/272 270/270/270 269/269/269
f 275/275/275 276/276/276 274/274/274 273/273/273
f 279/279/279 280/280/280 278/278/278 277/277/277
f 283/283/283 284/284/284 282/282/282 281/281/281
f 287/287/287 288/288/288 286/286/286 285/285/285
f 291/291/291 292/292/292 290/290/290 289/289/289
f 295/295/295 296/296/296 294/294/294 293/293/293
f 299/299/299 300/300/300 298/298/298 297/297/297
f 303/303/303 304/304/304 302/302/302 301/301/301
f 307/307/307 308/308/308 306/306/306 305/305/305
f 311/311/311 312/312/312 310/310/310 309/309/309
f 315/315/315 316/316/316 314/314/314 313/313/313
f 319/319/319 320/320/320 318/318/318 317/317/317
f 323/323/323 324/324/324 322/322/322 321/321/321
f 327/327/327 328/328/328 326/326/326 325/325/325
f 349/349/349 350/350/350 348/348/348 347/347/347
f 353/353/353 354/354/354 352/352/352 351/351/351
f 357/357/357 358/358/358 356/356/356 355/355/355
f 361/361/361 362/362/362 360/360/360 359/359/359
f 371/371/371 372/372/372 370/370/370 369/369/369
f 375/375/375 376/376/376 374/374/374 373/373/373
f 379/379/379 380/380/380 378/378/378 377/377/377
f 390/390/390 383/383/383 382/382/382 381/381/381
f 393/393/393 394/394/394 392/392/392 391/391/391
f 397/397/397 398/398/398 396/396/396 395/395/395
f 408/408/408 401/401/401 400/400/400 399/399/399
f 415/415/415 412/412/412 414/414/414 413/413/413
f 421/421/421 422/422/422 420/420/420 419/419/419
f 425/425/425 426/426/426 424/424/424 423/423/423
f 429/429/429 430/430/430 428/428/428 427/427/427
f 433/433/433 434/434/434 432/432/432 431/431/431
f 437/437/437 438/438/438 436/436/436 435/435/435
f 441/441/441 442/442/442 440/440/440 439/439/439
f 451/451/451 452/452/452 450/450/450 449/449/449
f 455/455/455 456/456/456 454/454/454 453/453/453
f 459/459/459 460/460/460 458/458/458 457/457/457
f 463/463/463 464/464/464 462/462/462 461/461/461
f 467/467/467 468/468/468 466/466/466 465/465/465
f 471/471/471 472/472/472 470/470/470 469/469/469
f 475/475/475 476/476/476 474/474/474 473/473/473
f 479/479/479 480/480/480 478/478/478 477/477/477
f 483/483/483 484/484/484 482/482/482 481/481/481
f 487/487/487 488/488/488 486/486/486 485/485/485
f 491/491/491 492/492/492 490/490/490 489/489/489
f 495/495/495 496/496/496 494/494/494 493/493/493
f 499/499/499 500/500/500 498/498/498 497/497/497
f 503/503/503 504/504/504 502/502/502 501/501/501
f 519/519/519 520/520/520 518/518/518 517/517/517
f 523/523/523 524/524/524 522/522/522 521/521/521
f 527/527/527 528/528/528 526/526/526 525/525/525
f 531/531/531 532/532/532 530/530/530 529/529/529
f 535/535/535 536/536/536 534/534/534 533/533/533
f 539/539/539 540/540/540 538/538/538 537/537/537
f 543/543/543 544/544/544 542/542/542 541/541/541
f 547/547/547 548/548/548 546/546/546 545/545/545
f 557/557/557 558/558/558 556/556/556 555/555/555
f 561/561/561 562/562/562 560/560/560 559/559/559
f 565/565/565 566/566/566 564/564/564 563/563/563
f 569/569/569 570/570/570 568/568/568 567/567/567
f 573/573/573 574/574/574 572/572/572 571/571/571
f 577/577/577 578/578/578 576/576/576 575/575/575
f 581/581/581 582/582/582 580/580/580 579/579/579
f 585/585/585 586/586/586 584/584/584 583/583/583
f 589/589/589 590/590/590 588/588/588 587/587/587
f 593/593/593 594/594/594 592/592/592 591/591/591
f 597/597/597 598/598/598 596/596/596 595/595/595
f 601/601/601 602/602/602 600/600/600 599/599/599
f 605/605/605 606/606/606 604/604/604 603/603/603
f 609/609/609 610/610/610 608/608/608 607/607/607
f 613/613/613 614/614/614 612/612/612 611/611/611
f 617/617/617 618/618/618 616/616/616 615/615/615
f 621/621/621 622/622/622 620/620/620 619/619/619
f 625/625/625 626/626/626 624/624/624 623/623/623
f 629/629/629 630/630/630 628/628/628 627/627/627
f 633/633/633 634/634/634 632/632/632 631/631/631
f 637/637/637 638/638/638 636/636/636 635/635/635
f 641/641/641 642/642/642 640/640/640 639/639/639
f 645/645/645 646/646/646 644/644/644 643/643/643
f 649/649/649 650/650/650 648/648/648 647/647/647
f 653/653/653 654/654/654 652/652/652 651/651/651
f 657/657/657 658/658/658 656/656/656 655/655/655
f 661/661/661 662/662/662 660/660/660 659/659/659
f 665/665/665 666/666/666 664/664/664 663/663/663
f 669/669/669 670/670/670 668/668/668 667/667/667
f 673/673/673 674/674/674 672/672/672 671/671/671
f 677/677/677 678/678/678 676/676/676 675/675/675
f 681/681/681 682/682/682 680/680/680 679/679/679
f 685/685/685 686/686/686 684/684/684 683/683/683
f 689/689/689 690/690/690 688/688/688 687/687/687
f 693/693/693 694/694/694 692/692/692 691/691/691
f 697/697/697 698/698/698 696/696/696 695/695/695
f 701/701/701 702/702/702 700/700/700 699/699/699
f 705/705/705 706/706/706 704/704/704 703/703/703
f 709/709/709 710/710/710 708/708/708 707/707/707
f 713/713/713 714/714/714 712/712/712 711/711/711
f 717/717/717 718/718/718 716/716/716 715/715/715
f 721/721/721 722/722/722 720/720/720 719/719/719
f 725/725/725 726/726/726 724/724/724 723/723/723
f 729/729/729 730/730/730 728/728/728 727/727/727
f 733/733/733 734/734/734 732/732/732 731/731/731
f 737/737/737 738/738/738 736/736/736 735/735/735
f 741/741/741 742/742/742 740/740/740 739/739/739
f 745/745/745 746/746/746 744/744/744 743/743/743
f 749/749/749 750/750/750 748/748/748 747/747/747
f 753/753/753 754/754/754 752/752/752 751/751/751
f 757/757/757 758/758/758 756/756/756 755/755/755
f 761/761/761 762/762/762 760/760/760 759/759/759
f 765/765/765 766/766/766 764/764/764 763/763/763
f 769/769/769 770/770/770 768/768/768 767/767/767
f 773/773/773 774/774/774 772/772/772 771/771/771
f 777/777/777 778/778/778 776/776/776 775/775/775

g Tree (1)_1
usemtl Tree_texture
f 58/58/58 57/57/57 56/56/56
f 65/65/65 64/64/64 63/63/63
f 237/237/237 236/236/236 235/235/235
f 240/240/240 239/239/239 238/238/238
f 331/331/331 330/330/330 329/329/329
f 334/334/334 333/333/333 332/332/332
f 337/337/337 336/336/336 335/335/335
f 340/340/340 339/339/339 338/338/338
f 343/343/343 342/342/342 341/341/341
f 346/346/346 345/345/345 344/344/344
f 365/365/365 364/364/364 363/363/363
f 368/368/368 367/367/367 366/366/366
f 386/386/386 385/385/385 384/384/384
f 389/389/389 388/388/388 387/387/387
f 404/404/404 403/403/403 402/402/402
f 407/407/407 406/406/406 405/405/405
f 411/411/411 410/410/410 409/409/409
f 418/418/418 417/417/417 416/416/416
f 445/445/445 444/444/444 443/443/443
f 448/448/448 447/447/447 446/446/446
f 507/507/507 506/506/506 505/505/505
f 510/510/510 509/509/509 508/508/508
f 513/513/513 512/512/512 511/511/511
f 516/516/516 515/515/515 514/514/514
f 551/551/551 550/550/550 549/549/549
f 554/554/554 553/553/553 552/552/552

