# ProBuilder 4.2.3
# https://unity3d.com/unity/features/worldbuilding/probuilder
# 12/31/2020 9:41:20 AM

mtllib ./House2.mtl
o House2

g Cube
v -0.1379376 9.612842E-07 1.606569
v -0.8618373 9.612842E-07 1.606569
v -0.1379376 1 1.606569
v -0.8618373 1 1.606569
v -0.8618373 5.829447E-07 0.7934356
v -1 0 -1
v -0.8618373 1 0.7934356
v -1 1 -1
v 0 0 -1
v 0 1 -1
v -0.1379376 5.829447E-07 0.7934356
v -0.1379376 1 0.7934356
v -0.3829442 2.289127 -0.05163867
v -0.6170546 2.289127 -0.05163867
v -0.3829442 2.289127 -0.1549223
v -0.6170546 2.289127 -0.1549223
v 4.99993E-07 1.741654 0.1173126
v -0.9999993 1.741654 0.1173126
v 0.2951689 1 -0.9999997
v 0.2951689 1 0.7934356
v 0.2951689 1.741654 -0.3238736
v 0.2951689 1.741654 0.1173126
v -1.231772 1 0.7934356
v -1.231772 1 -0.9999997
v -1.231772 1.741654 0.1173126
v -1.231772 1.741654 -0.3238736
v -0.9999993 1.741654 -0.3238736
v 4.99993E-07 1.741654 -0.3238736
v -0.6799982 2.193364 0.9976875
v -0.3197766 2.193364 0.9976875
v -0.6799982 2.193364 1.402317
v -0.3197766 2.193364 1.402317
v -0.8618373 1.106538 0.7934356
v -0.1379376 1.106538 0.7934356
v -0.8618373 1.106538 1.606569
v -0.1379376 1.106538 1.606569
v -0.9571864 1.188494 0.6863323
v -0.04258842 1.188494 0.6863323
v -0.9571864 1.188494 1.713672
v -0.04258842 1.188494 1.713672
v -0.3829442 1.741678 -0.05163867
v -0.6170546 1.741678 -0.05163867
v -0.3829442 1.741678 -0.1549223
v -0.6170546 1.741678 -0.1549223

vt 0.5262098 0.7958687
vt 0.4616307 0.7958687
vt 0.5262098 0.8850788
vt 0.4616307 0.8850788
vt 0.4101417 0.1267283
vt 0.2496751 0.1267283
vt 0.4101417 0.2159384
vt 0.2496751 0.2159384
vt 0.160465 0.1267283
vt 0.160465 0.2159384
vt 0 0.1267283
vt 0 0.2159384
vt 0.930277 0.3119835
vt 0.951162 0.3119835
vt 0.930277 0.3027695
vt 0.951162 0.3027695
vt 0.2560548 0.03163721
vt 0.2492025 0.1205837
vt 0.4146295 0.05619539
vt 0.4096692 0.1205838
vt 0.5633589 0.2739449
vt 0.6022786 0.3254786
vt 0.6273875 0.2101682
vt 0.6811514 0.2813572
vt 0.5548311 0.08871987
vt 0.5400734 0.2480302
vt 0.6151484 0.1548828
vt 0.611518 0.1940733
vt 0.8182709 0
vt 0.6582783 0
vt 0.7579538 0.06616297
vt 0.7185956 0.06616297
vt 0.6429984 0.0139298
vt 0.5770723 0.07403117
vt 0.7033157 0.08009285
vt 0.6373895 0.1401942
vt 0.160465 0.222073
vt 0 0.222073
vt 0.1624843 0.2483275
vt 0.002962947 0.2605967
vt 0.6179302 0.1579342
vt 0.557613 0.09177129
vt 0.5596508 0.2788627
vt 0.6236793 0.215086
vt 0.5363653 0.2480302
vt 0.60781 0.1940732
vt 0.7374684 0.395524
vt 0.7374684 0.3561657
vt 0.7111363 0.395524
vt 0.7111363 0.3561657
vt 0.4101418 0.2220829
vt 0.2496751 0.2220829
vt 0.4076069 0.2549873
vt 0.248087 0.2426982
vt 0.6811514 0.286275
vt 0.6022786 0.3303964
vt 0.6936124 0.3027747
vt 0.6221678 0.3567317
vt 0.7840039 0.2085978
vt 0.712559 0.2625551
vt 0.7964649 0.2250974
vt 0.7250201 0.2790547
vt 0.5987496 0.7958687
vt 0.5987496 0.7312894
vt 0.5262099 0.7312894
vt 0.5987496 0.8850788
vt 0.389091 0.7958686
vt 0.389091 0.8850787
vt 0.9985263 0.4957717
vt 0.9663908 0.4957717
vt 0.9985263 0.5318688
vt 0.9663908 0.5318688
vt 0.7676398 0.7581618
vt 0.7030605 0.7581618
vt 0.7676398 0.767666
vt 0.7030605 0.767666
vt 0.8401796 0.7581618
vt 0.8401796 0.767666
vt 0.9772986 0.7581618
vt 0.9047588 0.7581618
vt 0.9772986 0.767666
vt 0.9047588 0.767666
vt 0.6194299 0.8422264
vt 0.6667057 0.7982319
vt 0.6050068 0.8392137
vt 0.6647364 0.7836295
vt 0.657298 0.9087962
vt 0.6225434 0.8451238
vt 0.6520304 0.9225569
vt 0.6081202 0.8421111
vt 0.7206742 0.8165523
vt 0.7206742 0.889092
vt 0.7318907 0.8069976
vt 0.7318907 0.8986467
vt 0.7221614 0.8901435
vt 0.6595869 0.9061092
vt 0.7333779 0.8996982
vt 0.6543193 0.9198699
vt 0.8070715 0.608838
vt 0.8545287 0.675208
vt 0.8977954 0.574366
vt 0.9164867 0.6005062
vt 0.8075911 0.5073746
vt 0.814263 0.5987806
vt 0.902359 0.5283073
vt 0.9049868 0.5643086
vt 0.9298076 0.3946885
vt 0.8515735 0.4424271
vt 0.9545357 0.4885377
vt 0.9237222 0.5073401
vt 0.8459186 0.4314321
vt 0.808602 0.5039898
vt 0.9180675 0.496345
vt 0.90337 0.5249225
vt 0.8266783 0.395524
vt 0.7716309 0.3804518
vt 0.7925159 0.3804518
vt 0.7716309 0.3712379
vt 0.8266783 0.3561657
vt 0.7925159 0.3712379
vt 0.8814391 0.3119835
vt 0.8814391 0.3328685
vt 0.930277 0.3328685
vt 0.8814391 0.3027695
vt 1 0.3119835
vt 1 0.3027695
vt 0.9511621 0.2539315
vt 0.930277 0.2539315

vn 0 0 1
vn -0.9970458 0 0.07681043
vn 0 0 -1
vn 0.9970553 0 0.07668599
vn 0 1 0
vn 0 -1 3.250435E-07
vn 0 0.6737044 0.7390009
vn 1 0 0
vn -1 0 0
vn 0 0.6737061 -0.7389994
vn 0 -0.7941644 -0.607703
vn -0.6518398 -0.7583567 0
vn 0.6518398 -0.7583567 0
vn 0 -0.7941644 0.607703
vn 0 0.2959648 -0.9551988
vn -0.9639969 0.2659136 0
vn 0.9639969 0.2659136 0
vn 0 0.2959648 0.9551988

usemtl ProBuilderDefault
f 3/3/1 4/4/1 2/2/1 1/1/1
f 7/7/2 8/8/2 6/6/2 5/5/2
f 8/8/3 10/10/3 9/9/3 6/6/3
f 10/10/4 12/12/4 11/11/4 9/9/4
f 15/15/5 16/16/5 14/14/5 13/13/5
f 11/19/6 5/20/6 6/18/6 9/17/6
f 17/23/7 18/24/7 7/22/7 12/21/7
f 21/27/8 22/28/8 20/26/8 19/25/8
f 25/31/9 26/32/9 24/30/9 23/29/9
f 27/35/10 28/36/10 10/34/10 8/33/10
f 19/39/6 20/40/6 12/38/6 10/37/6
f 21/41/10 19/42/10 10/34/10 28/36/10
f 20/45/7 22/46/7 17/44/7 12/43/7
f 22/49/5 21/50/5 28/48/5 17/47/5
f 23/53/6 24/54/6 8/52/6 7/51/6
f 25/57/7 23/58/7 7/56/7 18/55/7
f 24/61/10 26/62/10 27/60/10 8/59/10
f 26/62/5 25/57/5 18/55/5 27/60/5
f 1/1/6 2/65/6 5/64/6 11/63/6
f 3/3/8 1/1/8 11/63/8 12/66/8
f 2/2/9 4/4/9 7/68/9 5/67/9
f 31/71/5 32/72/5 30/70/5 29/69/5
f 33/75/3 34/76/3 12/74/3 7/73/3
f 35/78/9 33/75/9 7/73/9 4/77/9
f 34/81/8 36/82/8 3/80/8 12/79/8
f 36/82/1 35/78/1 4/77/1 3/80/1
f 37/85/11 38/86/11 34/84/11 33/83/11
f 39/89/12 37/90/12 33/88/12 35/87/12
f 38/93/13 40/94/13 36/92/13 34/91/13
f 40/97/14 39/98/14 35/96/14 36/95/14
f 29/101/15 30/102/15 38/100/15 37/99/15
f 31/105/16 29/106/16 37/104/16 39/103/16
f 30/109/17 32/110/17 40/108/17 38/107/17
f 32/113/18 31/114/18 39/112/18 40/111/18
f 41/116/5 42/117/5 18/115/5 17/47/5
f 43/118/5 41/116/5 17/47/5 28/48/5
f 42/117/5 44/120/5 27/119/5 18/115/5
f 44/120/5 43/118/5 28/48/5 27/119/5
f 13/13/1 14/123/1 42/122/1 41/121/1
f 15/15/8 13/13/8 41/121/8 43/124/8
f 14/14/9 16/16/9 44/126/9 42/125/9
f 16/16/3 15/15/3 43/128/3 44/127/3

