# ProBuilder 4.2.3
# https://unity3d.com/unity/features/worldbuilding/probuilder
# 12/31/2020 9:41:08 AM

mtllib ./House1.mtl
o House1

g Cube
v 0 0 0
v -1 0 0
v 0 1 0
v -1 1 0
v -1 0 -1
v -1 1 -1
v 0 0 -1
v 0 1 -1
v -0.4171674 1.966869 -0.4171673
v -0.5828416 1.966869 -0.4171683
v -0.4171667 1.966869 -0.5828451
v -0.5828421 1.966869 -0.5828431
v 0.3022407 1.117046 0.302245
v -1.302248 1.117046 0.3022461
v 0.3022428 1.117046 -1.302251
v -1.302248 1.117046 -1.302244
v -0.2964049 1.632608 -0.296404
v -0.7036055 1.632608 -0.2964042
v -0.2964055 1.632608 -0.7036068
v -0.7036059 1.632608 -0.7036034
v -0.4171674 1.632649 -0.4171673
v -0.5828416 1.632649 -0.4171683
v -0.4171667 1.632649 -0.5828451
v -0.5828421 1.632649 -0.5828431

vt 0.3557839 0.8076864
vt 0.253802 0.8076864
vt 0.3557839 0.9096683
vt 0.253802 0.9096683
vt 0.1518201 0.8076864
vt 0.1518201 0.9096683
vt 0.04983824 0.8076864
vt 0.04983824 0.9096683
vt 0.4577658 0.8076864
vt 0.4577658 0.9096683
vt 0.3452203 0.06329606
vt 0.362116 0.06329597
vt 0.3452202 0.04639993
vt 0.3621161 0.04640014
vt 0.04983824 0.7057045
vt 0.1518201 0.7057045
vt 0.6593674 0.9119251
vt 0.7575468 0.8843369
vt 0.6207517 0.8884417
vt 0.7782795 0.8441767
vt 0.5199601 0.8088354
vt 0.5730796 0.8958907
vt 0.5321206 0.7653061
vt 0.6173505 0.904986
vt 0.8049065 0.8092644
vt 0.8049065 0.7072825
vt 0.7718522 0.840088
vt 0.7718522 0.6764592
vt 0.5800214 0.643042
vt 0.5105814 0.7177305
vt 0.6252173 0.6429741
vt 0.5138019 0.7628117
vt 0.6252227 0.892611
vt 0.7827504 0.8483458
vt 0.662201 0.7985283
vt 0.7021798 0.7872943
vt 0.524093 0.7739145
vt 0.6093228 0.9135943
vt 0.6246709 0.7840626
vt 0.6463012 0.8195118
vt 0.6912816 0.7790366
vt 0.6912816 0.7375096
vt 0.6147236 0.6317208
vt 0.5033082 0.7515585
vt 0.6321621 0.7312933
vt 0.6038861 0.7617066
vt 0.3329048 0.04152732
vt 0.3744318 0.0415273
vt 0.3452204 0.02921165
vt 0.3621161 0.02921155
vt 0.3329049 0
vt 0.3452203 0.01231551
vt 0.3744318 3.404013E-07
vt 0.3621162 0.01231571
vt 0.3452203 0.09738044
vt 0.362116 0.09738044
vt 0.3111358 0.04640003
vt 0.3111359 0.06329618
vt 0.3962004 0.06329616
vt 0.3962005 0.04640039

vn 0 0 1
vn -1 0 0
vn 0 0 -1
vn 1 0 0
vn 0 1 0
vn 0 -1 0
vn 0 -0.9325181 0.3611234
vn 0.3611256 -0.9325172 0
vn -0.3611205 -0.9325191 0
vn 0 -0.9325176 -0.3611246
vn 4.605972E-07 0.7577322 0.6525656
vn 0.6525668 0.7577312 8.60587E-07
vn -0.6525699 0.7577285 1.939368E-07
vn -2.860564E-06 0.7577289 -0.6525695
vn -1.959326E-10 0.9999999 0.0003346379

usemtl ProBuilderDefault
f 3/3/1 4/4/1 2/2/1 1/1/1
f 4/4/2 6/6/2 5/5/2 2/2/2
f 6/6/3 8/8/3 7/7/3 5/5/3
f 8/10/4 3/3/4 1/1/4 7/9/4
f 11/13/5 12/14/5 10/12/5 9/11/5
f 1/15/6 2/16/6 5/5/6 7/7/6
f 13/19/7 14/20/7 4/18/7 3/17/7
f 15/23/8 13/24/8 3/22/8 8/21/8
f 14/27/9 16/28/9 6/26/9 4/25/9
f 16/31/10 15/32/10 8/30/10 6/29/10
f 17/35/11 18/36/11 14/34/11 13/33/11
f 19/39/12 17/40/12 13/38/12 15/37/12
f 18/41/13 20/42/13 16/28/13 14/27/13
f 20/45/14 19/46/14 15/44/14 16/43/14
f 21/49/15 22/50/15 18/48/15 17/47/15
f 23/52/15 21/49/15 17/47/15 19/51/15
f 22/50/15 24/54/15 20/53/15 18/48/15
f 24/54/15 23/52/15 19/51/15 20/53/15
f 9/11/1 10/12/1 22/56/1 21/55/1
f 11/13/4 9/11/4 21/58/4 23/57/4
f 10/12/2 12/14/2 24/60/2 22/59/2
f 12/14/3 11/13/3 23/52/3 24/54/3

