# ProBuilder 4.2.3
# https://unity3d.com/unity/features/worldbuilding/probuilder
# 12/31/2020 8:48:00 AM

mtllib ./Tree1.mtl
o Tree1

g Tree1
v -0.75 0 0
v -1 0 0
v -0.75 1 0
v -1 1 0
v -1.004519 0.001151502 -0.25
v -0.995471 1.001111 -0.25
v -0.754529 -0.001110554 -0.25
v -0.7454805 0.9988485 -0.25
v -0.8365021 3.488989 -0.107357
v -0.8915062 3.488782 -0.08235168
v -0.8597288 3.48893 -0.1640434
v -0.9165106 3.488861 -0.1373558
v -0.2644014 0.784658 0.720377
v -1.720378 0.784658 0.4855976
v -0.02962208 0.784658 -0.7355976
v -1.485599 0.784658 -0.970377
v -0.789813 1.594122 -0.00705719
v -0.9929409 1.594122 -0.03981209
v -0.7570572 1.594122 -0.2101879
v -0.9601851 1.594122 -0.2429428
v -0.2966948 1.472253 0.45331
v -1.453301 1.472253 0.45331
v -0.2966948 1.472253 -0.70331
v -1.453301 1.472253 -0.70331
v -0.8055925 2.391571 -0.05559349
v -0.9444036 2.391571 -0.05559349
v -0.8055925 2.391571 -0.1944065
v -0.9444036 2.391571 -0.1944065
v -0.2826853 2.175082 0.09560585
v -1.094499 2.172027 0.4646473
v -0.6521978 2.174133 -0.7140446
v -1.46355 2.173193 -0.3471775

vt -0.75 0
vt -1 0
vt -0.75 1
vt -1 1
vt -0.0180749 0
vt -0.2681157 0.001151502
vt -0.0180749 1
vt -0.2679522 1.001111
vt 1.004519 0.001151502
vt 0.754529 -0.001110554
vt 0.995471 1.001111
vt 0.7454805 0.9988485
vt 0.2635957 -0.007894729
vt 0.01355464 -0.00678413
vt 0.2634321 0.9921052
vt 0.01355464 0.9931749
vt 0.8240125 -0.108805
vt 0.8790169 -0.08379965
vt 0.8472393 -0.1654914
vt 0.9040209 -0.1388038
vt -0.7544881 -0.2500339
vt -1.004489 -0.2500339
vt -0.7499693 -3.125633E-05
vt -0.9999591 -4.16751E-05
vt -0.75 -0.2864069
vt -1 -0.2864069
vt -0.2644014 0.4654675
vt -1.720378 0.2405235
vt -1.000894 -0.2505783
vt -1.005554 -0.0005782599
vt -0.2536786 -0.7361761
vt -0.4785713 0.7198505
vt -0.6709429 0.001174926
vt -0.6662857 -0.2488252
vt -1.422818 0.4867728
vt -1.197915 -0.9692648
vt -1.004488 0.05180104
vt -0.7544878 0.05180104
vt -1.492638 -0.7016778
vt -0.0367206 -0.4733509
vt -0.1463486 0.1528272
vt -1.621133 0.1528272
vt -0.7808641 1.181341
vt -0.9866159 1.181341
vt 0.7215008 0.7078295
vt -0.7532817 0.7078295
vt 0.08698696 1.736344
vt -0.1187678 1.736344
vt 0.753282 -0.3825744
vt -0.7215005 -0.3825744
vt 0.1187678 0.6459411
vt -0.086987 0.6459414
vt 1.621133 0.1724337
vt 0.1463483 0.1724337
vt 0.9866153 1.200947
vt 0.7808635 1.200947
vt -0.7066171 -0.5037195
vt -0.909475 -0.5381063
vt -0.220434 -0.02041663
vt -1.375504 -0.03855927
vt -1.206886 -0.2731366
vt -1.238084 -0.06976066
vt -0.7312831 -0.7668539
vt -0.7312831 0.3883719
vt -0.4598529 0.04961906
vt -0.4286554 -0.1537568
vt -0.9354541 0.5433363
vt -0.9354541 -0.6118894
vt -1.041056 0.2381326
vt -0.8381979 0.2725194
vt -1.527237 -0.2451702
vt -0.3721671 -0.2270276
vt -0.2966948 1.068523
vt -1.453301 1.068523
vt -0.8055925 2.119299
vt -0.9444036 2.119299
vt 0.70331 1.431762
vt -0.45331 1.431762
vt 0.1944065 2.482535
vt 0.05559349 2.482535
vt 0.45331 0.5842246
vt -0.70331 0.5842246
vt -0.05559349 1.634997
vt -0.1944065 1.634997
vt 1.453301 0.9474453
vt 0.2966948 0.9474453
vt 0.9444036 1.998221
vt 0.8055925 1.998221
vt 0.8055925 1.992543
vt 0.9444036 1.992543
vt 0.2826853 1.728481
vt 1.094499 1.514667
vt -0.1944065 2.41861
vt -0.05559349 2.41861
vt -0.7140446 2.15251
vt 0.09560585 1.940278
vt 0.05559349 1.441282
vt 0.1944065 1.441282
vt -0.4646473 1.175334
vt 0.3471775 0.9680131
vt -0.9444036 1.848207
vt -0.8055925 1.848207
vt -1.46355 1.581696
vt -0.6521978 1.372168
vt -0.2969402 2.083656
vt -1.188698 2.080453
vt -0.717561 3.461095
vt -0.7779822 3.460877
vt 0.9204774 2.161976
vt 0.03049246 2.162971
vt 0.5064281 3.541405
vt 0.4452158 3.542196
vt -0.03044138 1.718799
vt -0.9222138 1.720021
vt -0.4442273 3.098306
vt -0.5046481 3.098389
vt 1.190212 1.794054
vt 0.2997718 1.79504
vt 0.7783473 3.174136
vt 0.7156131 3.173929

vn 0 0 1
vn -0.9998366 0 0.0180749
vn -0.9998162 0.004523492 1.395121E-06
vn -0.9997958 0.009046985 -0.01807211
vn 0 0 -1
vn 0.9997958 -0.009046985 -0.01807211
vn 0.9998162 -0.004523492 1.395121E-06
vn 0.9998366 0 0.0180749
vn -0.003578199 0.9999935 0.0004146607
vn -0.002006913 0.9999961 0.001025882
vn -0.0004356265 0.9999986 0.001637103
vn -0.009048102 -0.9999485 0.004605901
vn -0.004524051 -0.9999689 -2.910383E-08
vn 0 -0.9999894 -0.00460596
vn 0 -0.9581081 -0.2864069
vn 0.02712533 -0.9491256 -0.3114203
vn 0.05425066 -0.9401432 -0.3364337
vn -0.2871364 -0.9578894 -0.000778762
vn -0.3117848 -0.9490165 -0.02751471
vn -0.3364332 -0.9401434 -0.05425065
vn 0.2869904 -0.957933 0.000943773
vn 0.3113621 -0.9491665 0.02754081
vn 0.3357337 -0.9403999 0.05413786
vn -0.008650692 -0.9560289 0.2931449
vn -0.03135132 -0.9483118 0.3141731
vn -0.05405194 -0.9405947 0.3352013
vn -0.1252908 0.6169233 0.7769865
vn 0.7769859 0.6169239 0.1252908
vn -0.776985 0.6169251 -0.1252907
vn 0.1252908 0.6169231 -0.7769866
vn 0.04908551 -0.9512783 -0.3044013
vn 0.02454275 -0.9610355 -0.2721604
vn 0 -0.9707928 -0.2399195
vn -0.304406 -0.9512767 -0.04908701
vn -0.2721637 -0.9610345 -0.0245435
vn -0.2399213 -0.9707924 0
vn 0.3044074 -0.9512763 0.04908723
vn 0.2721648 -0.9610342 0.02454362
vn 0.2399222 -0.9707921 0
vn -0.04908547 -0.9512784 0.3044011
vn -0.02454274 -0.9610356 0.2721603
vn 0 -0.9707928 0.2399195
vn 0 0.4843124 0.8748952
vn 0.8748974 0.4843082 0
vn -0.8748974 0.4843082 0
vn 0 0.4843124 -0.8748952
vn 0 -0.5725898 -0.819842
vn -0.09560725 -0.7279681 -0.6238931
vn -0.1912145 -0.8833463 -0.4279443
vn -0.8171288 -0.5764551 0
vn -0.6198665 -0.7308916 0.09695382
vn -0.4226041 -0.885328 0.1939076
vn 0.8255168 -0.5643776 0
vn 0.627104 -0.7231394 -0.09807397
vn 0.4286913 -0.8819012 -0.1961479
vn 0 -0.5732269 0.8193967
vn 0.09701955 -0.7282391 0.6231324
vn 0.1940391 -0.8832511 0.4268681
vn 0.393812 0.3001974 0.8687886
vn 0.866976 0.3025115 -0.3960296
vn 0.8726138 0.3085294 -0.378108
vn 0.8782516 0.3145473 -0.3601863
vn -0.8687778 0.2981741 0.3953699
vn -0.3930669 0.3019436 -0.8685209
vn -0.3997478 0.2996032 -0.8662473
vn -0.4064288 0.2972627 -0.8639737

usemtl Tree_Brown
f 3/3/1 4/4/1 2/2/1 1/1/1
f 4/7/3 6/8/4 5/6/3 2/5/2
f 6/11/5 8/12/5 7/10/5 5/9/5
f 8/15/7 3/16/8 1/14/7 7/13/6
f 1/23/13 2/24/14 5/22/13 7/21/12

usemtl Tree_Green_1
f 11/19/10 12/20/11 10/18/10 9/17/9
f 13/27/16 14/28/17 4/26/16 3/25/15
f 15/31/19 13/32/20 3/30/19 8/29/18
f 14/35/22 16/36/23 6/34/22 4/33/21
f 16/39/25 15/40/26 8/38/25 6/37/24
f 17/43/27 18/44/27 14/42/27 13/41/27
f 19/47/28 17/48/28 13/46/28 15/45/28
f 18/51/29 20/52/29 16/50/29 14/49/29
f 20/55/30 19/56/30 15/54/30 16/53/30
f 21/59/32 22/60/33 18/58/32 17/57/31
f 23/63/35 21/64/36 17/62/35 19/61/34
f 22/67/38 24/68/39 20/66/38 18/65/37
f 24/71/41 23/72/42 19/70/41 20/69/40
f 25/75/43 26/76/43 22/74/43 21/73/43
f 27/79/44 25/80/44 21/78/44 23/77/44
f 26/83/45 28/84/45 24/82/45 22/81/45
f 28/87/46 27/88/46 23/86/46 24/85/46
f 29/91/48 30/92/49 26/90/48 25/89/47
f 31/95/51 29/96/52 25/94/51 27/93/50
f 30/99/54 32/100/55 28/98/54 26/97/53
f 32/103/57 31/104/58 27/102/57 28/101/56
f 9/107/59 10/108/59 30/106/59 29/105/59
f 11/111/61 9/112/62 29/110/61 31/109/60
f 10/115/63 12/116/63 32/114/63 30/113/63
f 12/119/65 11/120/66 31/118/65 32/117/64

